<svg xmlns="http://www.w3.org/2000/svg" width="190.578" height="132.539" viewBox="0 0 190.578 132.539"><defs><style>.a,.b,.d,.e,.f{fill-rule:evenodd;}.b{fill:#010101;}.c{fill:none;}.d{fill:#ff7979;}.e{fill:#010000;}.f{fill:#fff;}</style></defs><g transform="translate(-5.002 -59.984)"><path class="a" d="M106.2,143.528a4.607,4.607,0,0,1,1.792,2.24,6.408,6.408,0,0,1,.29.92,7.051,7.051,0,0,1-.066,3.476,3.95,3.95,0,0,1-3.377,3.144c.529,3.3,1.027,5.493,1.134,6.017.515,2.214.476,1.663.406,2.2l-.273.221-.346-.043-.224-.276c0-.07-.7-2.077-1.347-4.937-.92-4.05-.821-3.791-.714-4.058a.687.687,0,0,1,.3-.3h0c.283-.106.631-.086,1.278-.29a2.037,2.037,0,0,0,1.133-.777,5.224,5.224,0,0,0,.446-4.686,3.018,3.018,0,0,0-1.5-1.743c-.8-.446-.114-.867-.68-3.92-2.021-10.387-13.555-10.671-18.236-4.45h0l-.3.184-.329-.062h-.006l-.178-.284c.071-.407.047-.329.1-.41v0C91.2,126.947,106.094,129.539,106.2,143.528Z" transform="translate(-27.566 -39.75)"/><path class="a" d="M93.12,145.451a2.117,2.117,0,0,1,1.5.574,1.434,1.434,0,0,1,.483.741s-.062.3-.062.3c-1.007.1-.428.07-1.01-.029a2.538,2.538,0,0,0-.31-.043l-.015,0a2.384,2.384,0,0,0-1.066.008l-.018.009h0a1.367,1.367,0,0,0-.533.343c-.082.112-.161.131-.54.37-.071.057.026,0-.621.282-.285-.657-.252-.568-.26-.638a1.456,1.456,0,0,1,.2-.872,2.746,2.746,0,0,1,1.268-.889h0a2.983,2.983,0,0,1,.976-.154Z" transform="translate(-29.368 -44.828)"/><ellipse cx="1.512" cy="1.335" rx="1.512" ry="1.335" transform="translate(62.385 107.597) rotate(-87.504)"/><path class="a" d="M92.024,169.982l-.365-.095h0c-.086-.057-.358-.187-.453-.231h0c-.057-.027-.591-.281-.653-.308h0a5.162,5.162,0,0,1-.46-.244h0a3.311,3.311,0,0,0-.926-.355h0a1.316,1.316,0,0,0-.226-.019H88.81v0h0l-.01.009h0l0,.006h0v.006h0a.457.457,0,0,0-.023.045h0l-.007.005-.013.018-.006.006-.007.012-.007.006h0l-.019.018-.007.012-.029.035h0a1.118,1.118,0,0,0-.126.176h0a1.981,1.981,0,0,0-.164.281v.009l-.465.446c-.5-.52-.444-.381-.561-.893h0a2.829,2.829,0,0,1-.016-.382h0a1.258,1.258,0,0,1,.089-.39,1.723,1.723,0,0,1,.634-.726,1.84,1.84,0,0,1,1.1-.252,4.646,4.646,0,0,1,2.226.893h0a5.073,5.073,0,0,1,.964,1.078l.114.356-.095.3h0Z" transform="translate(-28.229 -52.275)"/><path class="a" d="M85.42,175.1c.2.168.729.538.8.583a6.624,6.624,0,0,0,3.656,1.364,6.849,6.849,0,0,0,1.975-.177c.509-.115,1.017-.4,1.385.324a29.842,29.842,0,0,1,1.446,4c.236.723.2.454.192.938l-.219.254h-.007l-.336,0c-.329-.285-.2-.053-.944-1.476-.035-.058-.849-1.719-1.235-2.582a7.923,7.923,0,0,1-1.7.214,8.094,8.094,0,0,1-4.6-1.324,4.8,4.8,0,0,1-1.433-1.428v-.006a7.273,7.273,0,0,1-.495-.875h0l-.042-.359.163-.268h.007l.311-.05C84.9,174.529,84.333,174.17,85.42,175.1Z" transform="translate(-27.035 -54.693)"/><path class="a" d="M87.323,174.373c-1.166-.42-2.712-.872-3.035-2.064a26.2,26.2,0,0,1-.6-2.606,13.68,13.68,0,0,1-.118-3.469c.018-.127-.035-.45.074-.379,1.133.762.519,2.679,3.526,8.42" transform="translate(-26.915 -51.821)"/><path class="a" d="M87.173,169.718a4.362,4.362,0,0,0,2.077.4c-.379-.924-1.431-3.529-.443-3.383.316.051.553.375.718.619.432.639.591,1.6,1.2,2.114.543.46,1.927-.176,2.47-.394.357-.145,1.249-.329,1.372-.785.131-.5-.294-1.158-.478-1.6-.4-.95-.825-1.906-1.275-2.838a4.7,4.7,0,0,0-.986-1.565c-.943-.837-1.611-.341-2.227-.751-.385-.263-.568-.712-.02-.934a2.708,2.708,0,0,1,1.512.018,4.2,4.2,0,0,1,1.387.473c1.266.777,1.906,2.3,3.131,4.23.914,1.474.881,2.719,3.07.3,3.2-3.519,1.958-4.934,2.972-8.388.066-.215.222-.862.561-.784.53.131.69.923.746,1.368a12.867,12.867,0,0,1-.082,4.32,8.938,8.938,0,0,1-1.563,3.62,16.238,16.238,0,0,1-5.6,4.443c-.533.219-2.4,1.055-2.839,1.166-3.352.862-6.183-.507-6.626-1.494-.083-.2,0-.388.237-.375a2.492,2.492,0,0,1,.711.222" transform="translate(-27.844 -48.599)"/><path class="b" d="M57.046,144.939c.287.309.2.057.707,1.623,4.071,13.786-2.8,23.6-1.5,44.2.48,6.347,1.628,11.728,4.939,17.087a27.215,27.215,0,0,0,10.222,9.377c.345.015,9.54,6.236,23.255,1.577h0l.354.018.24.256c0,.009-.018.344-.018.354l-.256.243a32.289,32.289,0,0,1-8.478,1.935,28.473,28.473,0,0,1-28.112-15.723c-4.524-9.109-4.291-22.356-2.943-32.429.831-7.093,3.36-17.321,1.763-24.9a25.117,25.117,0,0,0-.785-3.056h0l.028-.347.255-.231Z" transform="translate(-17.002 -44.647)"/><path class="b" d="M65.01,143.378l.281.236c.841,1.147.971,2.021,1.341,3.831a19.244,19.244,0,0,1,.354,3.483,13.943,13.943,0,0,1-.24,2.091l-.174.322-.306.126h0l-.293-.152-.149-.337h0c-.037-.471-.259-2.037-.354-3.125h0a45.165,45.165,0,0,0-.939-5.131c0-.026-.081-.764-.087-.789,0-.005.06-.359.061-.364l.206-.218h.007Z" transform="translate(-20.377 -44.109)"/><path class="b" d="M73.077,142.583a1.519,1.519,0,0,1,.515.616,4.9,4.9,0,0,1,.486,1.005,19.329,19.329,0,0,1,.582,3.62,10.051,10.051,0,0,1-.216,3.345c-.058.312-.246.848-.249.92l-.213.3-.316.092h0l-.274-.185-.108-.353h0c0-.817-.079-3.528-.095-3.883a19.428,19.428,0,0,0-.55-3.549c-.051-.292-.139-1.335-.137-1.384h0l.066-.363.206-.215h.006Z" transform="translate(-23.141 -43.834)"/><path class="b" d="M81.009,145.494c.236.34.239.156.584,2.366a49.63,49.63,0,0,1,.176,8.468,35.345,35.345,0,0,0,.278,6.812c1.572,9.069,8.2,19.006,11.961,29.6a1.051,1.051,0,0,1,.1.7l-.253.241h0l-.347-.018c-.325-.337-.143-.026-.7-1.363-3.964-8.865-10.291-19.4-12.053-28.018-1.23-6.321.179-11.451-.347-17.612-.106-.873-.112-.632-.008-1.063l.284-.19Z" transform="translate(-25.792 -44.816)"/><path class="b" d="M104.118,207.973l.258.193s-.008.319-.009.324c-.867,1.117-2.649,1.663-4.644,2.826h0a3.206,3.206,0,0,1-1.234.455c-.139.038-.005.049-.735-.1.15-.731.108-.6.2-.718a2.781,2.781,0,0,1,1.034-.927c0-.076,2.555-1.327,2.942-1.512a12.2,12.2,0,0,1,1.191-.39A2.015,2.015,0,0,1,104.118,207.973Z" transform="translate(-31.798 -66.259)"/><path class="b" d="M12.333,165.03h.006l.225.255c-.02.577.072.059-.562,1.635a79.044,79.044,0,0,0-4.727,19.541c-.465,4.109-.687,7.709-.763,10.326a30.851,30.851,0,0,0,.9,9.31,33.074,33.074,0,0,0,1.157,3.466,20.989,20.989,0,0,0,9.956,10.613,20.41,20.41,0,0,0,8.938,1.991,27.612,27.612,0,0,0,10.205-2.123c.616-.247,2.506-1.1,2.583-1.174l.352-.027c.005,0,.267.222.271.227l.028.35c-.3.369.011.182-2.181,1.261a30.549,30.549,0,0,1-7.344,2.384,26.052,26.052,0,0,1-5.1.407c-.4,0-.8-.038-1.061-.049a21.114,21.114,0,0,1-3.587-.574,20.832,20.832,0,0,1-3.448-1.2,21.319,21.319,0,0,1-6.637-4.834,21.06,21.06,0,0,1-4.024-5.91C4.554,204.251,4.8,198.571,5.32,191.312c.812-9.474,2.061-17.5,6.41-26.066h0l.263-.228Z" transform="translate(0 -51.537)"/><path class="b" d="M37.524,170.138l.29.158.122.329c0,.1-.016,1.232.031,2.075h0c0,.466.066,1.5.077,1.7a57.794,57.794,0,0,0,.777,7.613c.723,4.814,3.01,11.441,4.832,15.913,1.637,4.018,1.423,3.113,1.454,3.739l-.223.269c0,.006-.345.018-.349.018-.361-.307-.2-.092-.746-1.1-.382-.734-1.5-2.807-2.4-4.955a62.553,62.553,0,0,1-4.272-15.15,30.472,30.472,0,0,1-.085-10.2l.173-.308.313-.107Z" transform="translate(-10.852 -53.292)"/><path class="b" d="M50.6,207.223l.246.193s-.022.306-.022.311l-.247.316a6.734,6.734,0,0,1-1.512.952c-.076,0-.547.258-2.1.829h0a1.338,1.338,0,0,1-.466.128c-.066.007-.292.012-.34.01-.433-.027-.227.034-.929-.3.329-.705.205-.512.526-.819a1.725,1.725,0,0,1,.687-.415,26.986,26.986,0,0,1,3.286-1.156A2.045,2.045,0,0,1,50.6,207.223Z" transform="translate(-13.789 -65.997)"/><ellipse cx="1.664" cy="1.815" rx="1.664" ry="1.815" transform="translate(145.44 97.487) rotate(-4.024)"/><path class="b" d="M219.82,132.876h0a3.879,3.879,0,0,1,.536.263c.07.046.007-.011.3.307l.035.313h0l-.225.214-.375.059a2.782,2.782,0,0,0-.415-.015,5.322,5.322,0,0,0-.946.122h0a3.245,3.245,0,0,0-.962.267,3.791,3.791,0,0,0-1.1.763h0a1.82,1.82,0,0,1-.369.329h0a2.074,2.074,0,0,1-1.152.513l-.16-.624a3.178,3.178,0,0,1,.232-.75h0a1.628,1.628,0,0,1,.411-.53h0a5.341,5.341,0,0,1,1.437-1.009,5.088,5.088,0,0,1,1.506-.44,3.146,3.146,0,0,1,1.257.218Z" transform="translate(-71.985 -40.443)"/><path class="b" d="M217.746,159.744l.239.216.066.367a5.36,5.36,0,0,1-.426,1.507c-.038.071.093-.185-.179.356h0a7.617,7.617,0,0,1-2.764,2.563,4.914,4.914,0,0,1-1.191.5,3.394,3.394,0,0,1-1.028.022c-.248-.035-.091.049-.689-.427.574-.728.146-.319,1.262-.971h0a6.676,6.676,0,0,0,1.687-.92h0a8.1,8.1,0,0,0,1.528-1.572h0c.1-.113.394-.486.568-.75h0a4.923,4.923,0,0,0,.346-.572h0l.257-.267.317-.05Z" transform="translate(-70.886 -49.729)"/><path class="c" d="M123.213,154.53c3.017-.7,8.229-4.852,7.538,2.811-.408,4.488-1.692,9.618.032,14.005" transform="translate(-40.526 -47.342)"/><path class="d" d="M132.3,181.6a23.654,23.654,0,0,0-9.332-3.982c-4.089-.933-12.312-.27-12.387-.2-3.168,2.993-6.08,6.187-9.876,8.459-1.517.909-4.915,1.469-4.088-1.38a9.7,9.7,0,0,0-3.56,2.421c1.643,3.639,3.047,6.576,4.7,10.2,1.72-.7,2.892-.925,4.612-1.616,5.207,3.506,8.727,9.994,10.633,15.854.742-1.255,1.494-2.539,2.334-3.731-.971-2.74-2.175-8.24,2.274-8.478-.23-3.41.831-7.255,4.977-6.8a8.229,8.229,0,0,1,.854-5.24c1.265-1.926,3.959-1.024,5.214.345C129.725,185.553,132.3,181.6,132.3,181.6Z" transform="translate(-30.187 -55.688)"/><path class="d" d="M129.877,185.381c-1.28,2.109-1.159,2.244-1.677,2.222-.277-.066-.294-.159-.427-.276a4.307,4.307,0,0,0-1.713-1,2.765,2.765,0,0,0-1.368-.087l-.015.005h-.018a1.709,1.709,0,0,0-.712.354l-.01.011h0a4.817,4.817,0,0,0-1.157,3.12c-.089,2.041.209,2.1-.03,2.573a.652.652,0,0,1-.657.292,3.827,3.827,0,0,0-2.169.36,3.715,3.715,0,0,0-1.682,2.313,7.265,7.265,0,0,0-.239,1.11c-.3,2.339.241,2.522-.412,2.995h0c-.649.3-3.389-.251-2.7,4.624h0a17.28,17.28,0,0,0,.766,2.991c.166.661-.107.433-2.116,3.886-.288.488-.371.768-.878.834a.741.741,0,0,1-.744-.511A39.016,39.016,0,0,0,108,202.682a23.17,23.17,0,0,0-6.1-6.733c-.565.177.677-.192-2.256.764-1.249.394-1.886.676-2.1.741a.739.739,0,0,1-.83-.415c-3.225-7.08-4.766-10.059-4.768-10.575a.716.716,0,0,1,.211-.451,9.653,9.653,0,0,1,2.69-2.051,8.676,8.676,0,0,1,1.325-.587.745.745,0,0,1,.767.467c.1.349.029.367-.049.775a1.069,1.069,0,0,0-.023.4v.024a.329.329,0,0,0,.01.043v.012a.8.8,0,0,0,.026.08v.006l.006.007.005.012v.006a.247.247,0,0,1,.017.025v.006h0v.007h0v.007l.018.019h.006v.006h.006v.006l.006,0h.006l.009.009h.006l.006.007.018.01.006.006c.014.008.007,0,.02.011l.006.006.033.014.009.007.035.013.009.007c.028.011.106.034.131.043h.015a.21.21,0,0,1,.039.011h.015l.027.007h.015l.015,0c1.759.076,2.777-.7,4.206-1.7,3.869-2.852,7.53-6.9,8.224-7.381a46.366,46.366,0,0,1,12.478.141c3.32.735,7.272,2.158,9.885,4.333l.007-.006C132.643,181.257,132.406,181.217,129.877,185.381Zm-1.723.842h0c.263-.488,3.012-4.76,3.135-4.9a23.976,23.976,0,0,0-8.848-3.477c-2.061-.507-6.577-.405-8.694-.325-.6.032-2.623.139-3.212.212-4.315,4.156-5.37,5.317-8.582,7.6a8.1,8.1,0,0,1-3.341,1.559,3.162,3.162,0,0,1-2.629-.484,1.849,1.849,0,0,1-.584-1.061,8.1,8.1,0,0,0-1.84,1.352c1.009,2.259,3.795,8.188,4.2,9.088.664-.263,2.85-.92,3.5-1.183.9-.329.754-.4,1.9.431A24.578,24.578,0,0,1,109,201.5a40.455,40.455,0,0,1,3.8,7.721c.044-.071.883-1.456,1.329-2.092-.769-2.4-1.471-5.788.147-7.755a3.651,3.651,0,0,1,2.219-1.239,8.268,8.268,0,0,1,1.446-5.223,4.306,4.306,0,0,1,.965-.885,4.561,4.561,0,0,1,2.615-.737c-.1-2.058.3-4.854,2.072-5.857,1.061-.605,2.811-.575,4.559.791Z" transform="translate(-29.803 -55.301)"/><path class="d" d="M118.12,274.241a16.787,16.787,0,0,1-7.163-16.06c-5.582,3.16-11.448,4.785-17.819,3.281.986,4.37,1.993,8.74,2.953,13.112,2.485-.087,14.735-.233,22.251-.193" transform="translate(-30.215 -83.475)"/><path class="d" d="M110.7,257.063a.749.749,0,0,1,.617.708c-.01.139-.06.538-.066.609a15.6,15.6,0,0,0,.414,5.565,16.95,16.95,0,0,0,3.03,6.351h.006a19.057,19.057,0,0,0,3.352,3.274l.244.1c.44,1.039.481.75-9.018.939-9.83.287-3.035.024-13.542.315a.739.739,0,0,1-.75-.581c-3.135-14.1-3.018-13.07-2.94-13.481a.747.747,0,0,1,.759-.53,20.667,20.667,0,0,0,7.252.41,25.061,25.061,0,0,0,7.7-2.323C110.307,257.224,110.132,257.025,110.7,257.063ZM95.11,262.242c-.072-.009-1.307-.166-1.38-.205.509,2.234,2.08,9.157,2.568,11.391.57-.165,16.984.02,20.093.07-.078-.043-.653-.5-1-.8a15.866,15.866,0,0,1-1.624-1.636,16.81,16.81,0,0,1-4.064-11.944C105.141,261.482,100.229,262.877,95.11,262.242Z" transform="translate(-29.831 -83.09)"/><path class="a" d="M203.461,176.955a6.146,6.146,0,0,0,1.048.614l.415.212h0a6.71,6.71,0,0,0,2.234.827,8.667,8.667,0,0,0,2.28.118,14.171,14.171,0,0,0,2.664-.478,4.685,4.685,0,0,0,.9-.367l.357-.066.289.161h0l.066.329-.172.32h0a6.2,6.2,0,0,1-.966.693,7,7,0,0,1-2.744.858,10.031,10.031,0,0,1-4.126-.419,7.719,7.719,0,0,1-1.547-.712h0l-.238-.171a5.22,5.22,0,0,1-1.126-1.314h0l-.088-.352.116-.288h0l.294-.087Z" transform="translate(-67.778 -55.588)"/><path class="a" d="M201.59,178.9c.223.425.136.1.316,1.222a17.6,17.6,0,0,1,.122,3.805.9.9,0,0,1-.107.51c-.329.472-.627.348-1.446.385a57.646,57.646,0,0,0-7.032.8c-1.112.2-.657.207-1.229.131l-.229-.246c0-.009.035-.329.036-.34l.263-.246h0a17.23,17.23,0,0,1,6-1.453c2.466-.2,2.268-.076,2.272-.173,0-.131.009-.692.01-1.051h0a11.143,11.143,0,0,1,.141-2.116c0-.032.138-.875.139-.9h0l.166-.32.285-.135h0Z" transform="translate(-64.102 -56.25)"/><path class="a" d="M236.084,137.983h0a8.558,8.558,0,0,1,.812.486c3.339,2.439,3.129,6.511-.241,8.861a9.628,9.628,0,0,1-3.286,1.467,24.525,24.525,0,0,1-1.206,7.853,18.353,18.353,0,0,1-2.972,5.666c.007.083.049,3.479.24,6.444a58.63,58.63,0,0,1,7.188,2.517c.768.362.573.229.881.568l-.009.348-.258.237c-.071,0-.428-.007-.357-.007a59.539,59.539,0,0,0-8.018-2.42.889.889,0,0,1-.375-.1h0c-.358-.229-.354-.474-.394-.908-.154-1.443-.308-3.492-.373-6.29.011-1.16-.007-.842.577-1.643l.248-.346a16.778,16.778,0,0,0,1.628-2.963,22.493,22.493,0,0,0,1.709-9.545.741.741,0,0,1,.522-.734,8.33,8.33,0,0,0,1.586-.4c2.131-.88,3.933-2.291,3.812-4.584,0-.021-.009-.1-.011-.106a3.961,3.961,0,0,0-.685-1.849h0a5.047,5.047,0,0,0-1.6-1.5,5.273,5.273,0,0,0-2.69-.807l-.324-.131-.144-.306h0l.123-.315c.367-.177.263-.157.573-.166a6.457,6.457,0,0,1,3.041.672Z" transform="translate(-76.352 -42.037)"/><path class="a" d="M190.18,108.287a25.632,25.632,0,0,0,5.865,2.644c4.738,1.124,10.237-.766,13.775-4,.515,5.278,1.563,11.231,7.266,12.664a19.346,19.346,0,0,0-1.473-10.179,13.509,13.509,0,0,0-8.942-6.8,16.9,16.9,0,0,0-9.44.46c-1.249.473-2.355,1.309-3.652,1.668-.539.149-1.31-.1-1.225-.793a3.154,3.154,0,0,1,1.082-1.96,15.336,15.336,0,0,1,6.177-2.76,19.859,19.859,0,0,1,11.431,1.709,18.532,18.532,0,0,1,6.934,7.573c1.36.066,2.164.3,3.313-.654,1.376-1.142.677-3.549-4.161-4.14a10.576,10.576,0,0,0,2.568-1.188,4.986,4.986,0,0,0,2.027-1.849,2.487,2.487,0,0,0-2.186-3.6c-1.932-.206-4.071,1.228-5.376,2.545a19.852,19.852,0,0,0,2.691-4.576c.689-2.2-.26-3.692-2.451-2.588-1.746.879-2.861,2.846-3.919,4.408a14.945,14.945,0,0,0,1.459-3.673c.4-1.968.053-6.063-3.053-5.113-2.632.806-4.08,3.832-4.92,6.44.216-1.987,1.039-6.7.1-8.633a1.892,1.892,0,0,0-3.049-.641,4.8,4.8,0,0,0-.839.98c-1.611,2.432-1.626,5.487-1.84,8.29-.46-1.972-1.073-4.206-2.6-5.652-2.341-2.207-4.286.816-4.439,3.06-.148,2.207.707,4.2,1.405,6.24-1.258-1.84-2.175-4.558-4.111-5.841-2.027-1.345-3.644.666-3.628,2.719.02,2.4,1.825,4.811,3.121,6.749-1.536-1.433-3.522-3.457-5.817-3.38-1.594.054-3.262,3.549-.154,6.938,2.131,2.328,5.026,2.366,7.9,2.621" transform="translate(-60.119 -24.013)"/><path class="a" d="M217.088,91.773c.908,1.36.3,3.241-.473,4.676l.114-.048c5.163-2.016,7.638,3.266,4.04,5.75-.31.235-1.143.759-1.489.956a7.412,7.412,0,0,1,1.283.558c1.972,1.076,2.641,3.294.492,4.711a4.286,4.286,0,0,1-3.033.526c-.46-.03-.46-.011-.685-.116-.456-.3-.087-.223-1.327-2.135a18.752,18.752,0,0,0-4.887-4.995c-3.514-2.269-9.433-2.751-12.572-1.857a15.137,15.137,0,0,0-4.448,2.037,2.917,2.917,0,0,0-.935.882,2.432,2.432,0,0,0-.352.92h0a.482.482,0,0,0,.22.024,14.387,14.387,0,0,0,2.607-1.189c6.068-3.038,16.271-1.52,20.271,6.064a15.714,15.714,0,0,1,1.418,4.363,21.83,21.83,0,0,1,.239,5.993c-.053.445-.03.5-.175.743a.737.737,0,0,1-.838.263,9.176,9.176,0,0,1-1.535-.548c-3.831-1.845-5.045-5.487-5.754-9.692-.059-.394-.2-1.391-.241-1.86a17.365,17.365,0,0,1-10.179,3.611c-4.611.029-7.282-2.245-9.163-3.106-.371-.453.184-.149-2.487-.46-2.968-.336-5.1-1.253-6.711-3.8a7.257,7.257,0,0,1-.519-1.023,5.347,5.347,0,0,1-.409-2.271c.066-1.5.926-3.22,2.47-3.259a5.742,5.742,0,0,1,3.227,1.046h0a7.247,7.247,0,0,1-1.079-4.9c.54-1.993,1.727-2.753,2.86-2.749,1.393.014,2.481,1.134,3.342,2.225-.031-.108-.06-.808-.066-.879-.047-3.761,2.756-6.65,5.4-4.454a7.784,7.784,0,0,1,1.92,2.64,11.249,11.249,0,0,1,1.853-5.269,2.915,2.915,0,0,1,3.665-1.287c2.011,1.019,1.861,3.637,1.763,5.89a9.359,9.359,0,0,1,.661-.854c2.389-2.577,5.558-2.971,6.591.075a8.078,8.078,0,0,1,.321,3.34,5.638,5.638,0,0,1,1.962-1.166A2.167,2.167,0,0,1,217.088,91.773Zm-14.8,6.12a19.833,19.833,0,0,1,8.974,2.1,19.413,19.413,0,0,1,5.493,5.126,16.606,16.606,0,0,1,1.425,2.3,5.866,5.866,0,0,0,1.375,0,2.24,2.24,0,0,0,1.224-.775l.01-.011.012-.022,0-.011.019-.033,0-.011.007-.011v-.011l.007-.011c.014-.043.022-.066.032-.095v-.011l.007-.02v-.011l0-.01v-.022l0-.011,0-.108v-.08c-.008-.04-.013-.066-.022-.108l-.005-.012v-.012h0v-.012l-.005-.013v-.012l-.022-.052c-.018-.1-.246-.676-1.473-1.217a9.61,9.61,0,0,0-2.47-.625.772.772,0,0,1-.7-.442.739.739,0,0,1,.23-.9c.231-.145.568-.2,1.306-.52a8.653,8.653,0,0,0,2.934-2.026,1.683,1.683,0,0,0-.962-2.656,4,4,0,0,0-3,.512,9.739,9.739,0,0,0-2.276,1.712.739.739,0,0,1-.452.215.756.756,0,0,1-.488-.122.74.74,0,0,1-.269-.9c.568-1.083,3.286-4.087,2.8-6.046l-.017-.014a.349.349,0,0,0-.008-.035l-.005-.011v-.011l-.006-.011v-.011l-.006-.011V92.8c-.093-.181-.106-.2-.109-.2l-.006-.006v-.006l-.006,0v-.005l-.006,0v0l-.006,0,0,0-.006,0v0l-.006,0v0h-.012v0H215.8v0l-.012-.006h0l-.024-.011h0a.7.7,0,0,0-.277-.043,3.622,3.622,0,0,0-2.065,1.044c-2.461,2.459-2.286,4.015-3.449,3.684a.743.743,0,0,1-.474-.789c.108-.489,1.356-2.416,1.546-4.211.117-1.117.029-2.939-.846-3.657-.723-.572-2.023.085-2.726.645a10.036,10.036,0,0,0-2.817,4.535c-.285.795-.243.912-.649,1.127a.752.752,0,0,1-.5.024c-1.153-.467.031-1.717.009-7.025,0-.912-.156-2.246-.986-2.639a1.043,1.043,0,0,0-.614-.081,2.09,2.09,0,0,0-1.222.949c-1.556,2.3-1.643,4.765-1.848,7.74-.032.474-.018.649-.306.916a.728.728,0,0,1-.9,0c-.46-.438-.177-.843-1.117-3.32-.039-.083-.167-.418-.284-.634-.415-.882-1.406-2.308-2.388-2.33a1.73,1.73,0,0,0-1.288.854c-1.712,2.507-.467,5.323.485,8.2a.678.678,0,0,1-.16.813.665.665,0,0,1-.831.034c-.868-.762-2.47-5.444-4.584-6.107a1.226,1.226,0,0,0-1.167.177c-3.089,2.805,1.989,8.149,2.107,8.976a.579.579,0,0,1-.81.578c-.6-.323-2.94-3.352-5.476-3.367a.837.837,0,0,0-.515.131c-1.665,1.276-1.092,4.577,1.1,6.388,1.788,1.657,4.452,1.8,6.822,2.006.34.031.21-.007.585.19l.072.222c2.481,1.326,4.554,2.5,7.074,2.747a14.84,14.84,0,0,0,7.46-1.307,16.464,16.464,0,0,0,4.419-2.88.634.634,0,0,1,.8-.047c.46.388.109.453.714,3.783a18.081,18.081,0,0,0,1.329,4.429,7.3,7.3,0,0,0,4.21,4.014h0a20.2,20.2,0,0,0-.733-6.929,11.606,11.606,0,0,0-1.475-3.2c-2.557-3.662-7.1-5.987-12.871-5.566-4,.306-5.052,1.583-7.048,2.337a2.263,2.263,0,0,1-1.84.08,1.589,1.589,0,0,1-.505-.36,1.405,1.405,0,0,1-.357-.819,3.291,3.291,0,0,1,.444-1.655,4.675,4.675,0,0,1,1.937-1.84,17.093,17.093,0,0,1,4.126-1.856,14.257,14.257,0,0,1,4.421-.582Z" transform="translate(-59.841 -23.629)"/><path class="d" d="M184.258,186.781c.2.425.131.139.229,1.085a53.854,53.854,0,0,1,.3,6.112c.16,8,.222,7.382.281,13.023-.066,5.418,0,4.847-.526,5.112h0l-.318-.138c-.194-.438-.141-.189-.218-1.117-.478-5.733-.423-6.506-.535-9.948-.233-9.858-.246-9.674-.137-11.508.054-.913.17-2.229.179-2.3h0l.15-.321.3-.135h.006Z" transform="translate(-61.111 -58.951)"/><path class="d" d="M248.941,184l.3.146.14.321c.317,3.1.206,15.632.185,16.319a61.459,61.459,0,0,1-.733,9.1c-.173,1.191-.144.986-.349,1.338l-.329.1h-.006c-.6-.357-.347.156-.2-4.817.394-14.261-.137-15.618.453-21.45.09-.759.027-.526.231-.932l.3-.126Z" transform="translate(-83.226 -58.044)"/><path class="a" d="M216.73,217.794c.413.789.242.308.411,2.316a4.024,4.024,0,0,1-.154,1.883h0l-.183.365-.252.158h-.006c-.336-.172-.223-.066-.482-.478h0a4.518,4.518,0,0,1-.369-1.409c-.008-.086-.166-1.952-.128-2.2a1.8,1.8,0,0,1,.151-.423c.131-.274.009-.11.547-.666C216.272,217.347,216.722,217.784,216.73,217.794Z" transform="translate(-72.185 -69.474)"/><path class="a" d="M129.746,213.514c1.607,1.753.222.214,2.713,3.455,3.838,4.426,3.632,3.958,3.449,4.583h0l-.3.131-.362-.106a16.639,16.639,0,0,1-4.753-4.728,10.59,10.59,0,0,1-1.149-1.779,7.974,7.974,0,0,1-.384-1.113c.02-.465-.066-.263.175-.619h.006l.3-.014Z" transform="translate(-42.494 -68.097)"/><path class="a" d="M134.708,205.17a12.567,12.567,0,0,1,1.051,1.369c1.926,3.468,2.295,3.825,3.047,5.065,1.34,2.414,1.11,1.845,1.222,2.394l-.152.293h0l-.324.066-.332-.172h0c-.287-.3-.995-1.017-1.39-1.529a47.8,47.8,0,0,1-3.387-5.447,10.383,10.383,0,0,1-.535-1.622c.02-.453-.047-.292.193-.613h0l.3-.005Z" transform="translate(-44.192 -65.233)"/><path class="a" d="M145.624,204.309l-.342-.154h0a14.91,14.91,0,0,1-1.56-1.588,19.694,19.694,0,0,1-2.329-4.013,4.761,4.761,0,0,1-.526-2.372c0-.19-.022-.076.109-.5l.233-.189h.006l.29.07c.288.314.242.25.313.394.046.088.57,1.033.617,1.2,1.026,2.719,1.688,3.225,3.2,5.82.441.738.329.451.452.949l-.137.3h0v0Z" transform="translate(-46.577 -61.985)"/><path class="a" d="M154.969,195.8h.006l.225.246c.013,1.6-4.436,9.951-3.912,22.92.042,2,.31,4.914.4,6.052.828,7.939,1.132,7.435.958,8.238-.006,0-.283.2-.287.2l-.339-.072-.206-.293A79.636,79.636,0,0,1,150,222.528a64.157,64.157,0,0,1,.175-12.283c.191-1.82.723-4.417.735-4.489a34.4,34.4,0,0,1,2.775-8.363c.75-1.569.653-1.345.951-1.605Z" transform="translate(-49.636 -62.086)"/><path class="a" d="M125.589,228.817l.235.243c.019,1.136-.2-.336-1.234,5.366-.893,4.868-3.286,11.976-1.573,19.276a15.2,15.2,0,0,0,2.792,5.957,12.561,12.561,0,0,0,5.346,3.921,13.065,13.065,0,0,0,5.789.831,16.3,16.3,0,0,0,4.485-1.183c4.193-1.7,6.814-5.495,8.984-9.4,2.234-4.1,1.6-3.374,2.126-3.838l.348.013.237.263c-.02.46.032.24-.25.879-1.421,3.173-3.45,7.348-5.926,9.867a15.477,15.477,0,0,1-12.08,4.9,14.377,14.377,0,0,1-12.656-9.735,24.923,24.923,0,0,1-1.183-10.334,50.974,50.974,0,0,1,2.066-10.519,35.964,35.964,0,0,1,1.893-6.267h0l.253-.241h.339Z" transform="translate(-39.738 -73.408)"/><path class="a" d="M169.7,191.383l.162.3h0l-.11.329c-.348.19-.27.167-.475.2-2.807.4-5.892,2.445-8.139,4.181h0c-3.877,2.988-6.233,6.309-9.069,10.19l-.294.206-.329-.03-.006,0-.2-.263c.029-.425.011-.329.075-.472a22.243,22.243,0,0,1,4.236-6.389A34.765,34.765,0,0,1,161.6,194.2a17.114,17.114,0,0,1,4.089-2.2c.07-.024,1.166-.4,1.271-.4a11.446,11.446,0,0,1,2.4-.34Z" transform="translate(-50.136 -60.536)"/><path class="a" d="M253.2,193.068c4.379,1.191,9.077,3.06,12.622,5.994a23.259,23.259,0,0,1,7.125,9.634c4.17,8.882,5.691,17.95,6.413,27.733.122,2.136.559,4.469.931,7.671a24.669,24.669,0,0,1,.128,4.577l-.159.317-.329.119h-.007l-.311-.156-.122-.329c.135-3.116-.729-6.736-1.111-9.25-.683-4.157-.747-9.416-2.432-17a59.381,59.381,0,0,0-3.286-10.677c-1.229-2.863-2.93-6.6-5.046-8.907a22.1,22.1,0,0,0-1.914-1.888c-3.335-3-8.262-5.395-12.776-6.966h0l-.263-.229c0-.01-.034-.335-.034-.344l.22-.257Z" transform="translate(-84.895 -61.153)"/><path class="a" d="M263.088,279.06c-.292-.336-.215-.16-.732-1.337a29.264,29.264,0,0,1-1.347-4.316h0a3.644,3.644,0,0,1-.16-1.609l.315-.561.562.315a7.133,7.133,0,0,1,.576,1.009c.039.1,1.091,3.669,1.191,4.136.053.231.161,1.02.169,1.134.074.854.087.577-.014,1.08l-.239.217C263.4,279.128,263.1,279.062,263.088,279.06Z" transform="translate(-87.701 -87.951)"/><path class="d" d="M173.62,263c-1.417-12.026-3.933-24.534,1.864-35.826,5.838-1.347,41.21-1.5,52.706-.526,4.033,12.3,1.292,24.821-1.089,37.143" transform="translate(-57.197 -72.449)"/><path class="d" d="M227.162,225.464c.84.054.843.058,1.055.176.308.238.3.4.484.975,3.685,12.057,1.079,23.921-1.41,36.3-.143.7-.066.5-.317.876l-.342.073h-.006l-.291-.2c-.1-.492-.116-.119.141-1.508,2.138-11.74,1.8-11.018,1.87-11.018,1.207-8.824,1.368-15.888-1.093-24.179-.008,0-.369-.029-2.766-.175-10.722-.468-21.54-.486-31.7-.3-2.238.041-15.049.341-17.179.956a32.58,32.58,0,0,0-3.117,10.877c-1.153,10.508,1.527,23.166,1.106,24.578l-.3.172h0l-.329-.1-.175-.3h0c-1.7-12.227-4.261-24.849,1.518-35.948.354-.723.384-.649,2.129-.91C187.046,224.6,217.995,224.688,227.162,225.464Z" transform="translate(-56.816 -72.062)"/><path class="a" d="M161.114,178.34a7.487,7.487,0,0,1-3.185-2.089c-2.144,3.356-4.169,6.121-6.809,9.828-.591.831-1.891,2.855-1.229,3.93,1.1,1.8,3.181-.967,3.933-2,2.878-3.988,4.168-5.708,7.3-9.712" transform="translate(-49.609 -55.388)"/><path class="e" d="M157.657,175.245c.3.087.322.151.522.387a7.149,7.149,0,0,0,2.513,1.849h0l.337.085h0l.165.307c-.062.222-.053.161-.045.267l-.039.039-.012.046h0c-6.814,9.4-7.111,10.121-8.315,11.4a3.79,3.79,0,0,1-2.265,1.363,1.759,1.759,0,0,1-1.577-.83,2.537,2.537,0,0,1-.185-2.289c.495-1.613,1.757-3.1,4.541-7.024C157.283,175.111,157.027,175.188,157.657,175.245Zm-7.433,12.923a1.993,1.993,0,0,0-.144.956v.012c.008.026.015.045.028.083h0l0,.006h0l.007.012h0v.006h0v.009a1.12,1.12,0,0,0,.091.127c.018.024.052.059.053.06h.007l.006.006,0,.005h.012l.009.008h.007l.007.006h0l.007.006h.006l.012.005h.03l.073-.005.009,0h.012l.009,0h.024l.009,0h.009l.027-.011h.009c.028-.009.014-.007.042-.015l.009-.007a1.2,1.2,0,0,0,.179-.086h0a12.84,12.84,0,0,0,2.794-3.211c1.877-2.6,4.375-5.621,6.313-7.952a7.847,7.847,0,0,1-1-.45,7.111,7.111,0,0,1-1.216-.8c-2.949,4.9-6.9,9.54-7.444,11.242Z" transform="translate(-49.217 -55.039)"/><path class="e" d="M171.112,120.111h0a20.57,20.57,0,0,1,20.012,20.6,21.979,21.979,0,0,1-.671,5.4v.009a21.181,21.181,0,0,1-22.738,15.772,20.118,20.118,0,0,1-5.146-1.2,21.2,21.2,0,0,1-13.812-19.439,20.647,20.647,0,0,1,2.005-9.25,21.043,21.043,0,0,1,3.639-5.334A20.781,20.781,0,0,1,171.112,120.111Zm-3.273,1.662A19.168,19.168,0,0,0,152.88,132.78a18.936,18.936,0,0,0-1.639,9.545,18.742,18.742,0,0,0,37.408-.822,19.78,19.78,0,0,0-.167-3.319,18.461,18.461,0,0,0-1.964-6.081,19.392,19.392,0,0,0-8.4-8.412,17.047,17.047,0,0,0-10.275-1.918Zm3.273-1.66Z" transform="translate(-49.282 -36.123)"/><ellipse cx="3.63" cy="2.723" rx="3.63" ry="2.723" transform="translate(121.502 105.935) rotate(-87.504)"/><path class="e" d="M184.7,141.492a3.857,3.857,0,0,1,1.343.183,4.157,4.157,0,0,1,2.514,4.276,6.147,6.147,0,0,1-.3,1.731,4.4,4.4,0,0,1-2.885,2.966,3.4,3.4,0,0,1-3.208-.86,4.656,4.656,0,0,1-1.149-1.752h0C179.857,145.034,181.736,141.365,184.7,141.492Zm.035,1.542c-1.468.263-1.887,2.338-1.524,3.782a1.878,1.878,0,0,0,1.163,1.462h.015l.012,0h.042l.015,0h.17a1.8,1.8,0,0,0,1.21-1.155c.708-1.568-.147-3.825-1.1-4.108Zm.1-1.525Z" transform="translate(-60.223 -43.471)"/><path class="e" d="M201.4,141.564l.094.346a34.417,34.417,0,0,1-.344,4.074c-.268,2.126-.258,3.215-.885,8.473a7.228,7.228,0,0,0-.231,1.77l0,.031v.015a.833.833,0,0,0,.047.181l.006.006v.009l.006.007v.009l.005.009.006.007c.081.137.321.244.718.329.23.043.091-.016.488.2l.116.317v0l-.158.3c-.371.141-.3.135-.544.125a1.916,1.916,0,0,1-1.694-.807h0a2.185,2.185,0,0,1-.263-.954c-.081-1.787.491-5.628.62-7.279.089-.821.009-.822.405-3.891a15.648,15.648,0,0,1,.805-3.117l.221-.278.312-.074C201.148,141.379,201.394,141.558,201.4,141.564Z" transform="translate(-66.427 -43.433)"/><path class="e" d="M172.688,127.454a4.158,4.158,0,0,1,2.087.542h0a2.221,2.221,0,0,1,1.077,1.549c.419,2.694-4.065,5.434-6.03,7.113a6.928,6.928,0,0,1-3.614,2.135c-2.073.117-2.737-1.92-2.408-3.95a4.855,4.855,0,0,1,.553-1.581,11.3,11.3,0,0,1,5.761-5.241c.95-.383.807-.329,1.145-.313l.156-.112a5.165,5.165,0,0,1,1.272-.141Zm-1.09,1.051-.2-.045a15.8,15.8,0,0,0-4.324,3.466,9.5,9.5,0,0,0-1.612,2.461,3.427,3.427,0,0,0,.015,2.644v.009l.009.009.011.019.006.006.011.019.006.006.006.009.011.013.006.009.006.006.009.007v.007l.009.006.023.026h.006l.011.012h.006l.006.007h.006l.006.006h.006l.006.007.018.01.005.006.059.033h.009a.124.124,0,0,0,.027.013h.006l.015.007h.024l.015.007h.018l.009,0h.027l.124.005h.066a2.643,2.643,0,0,0,.879-.3,7.174,7.174,0,0,0,1.282-.931c3.164-2.708,4.772-3.526,5.98-5.275a3.232,3.232,0,0,0,.263-.482,1.481,1.481,0,0,0,.114-.394l0-.014v-.043l0-.084V129.7l-.005-.024v-.012l-.005-.025v-.012c-.009-.043-.016-.072-.02-.095l-.006-.009-.005-.024-.005-.01v-.012l-.006-.009v-.012a.21.21,0,0,1-.011-.022v-.012a1.128,1.128,0,0,0-.4-.46h0a2.519,2.519,0,0,0-.221-.143l-.018-.007-.014-.009A3.888,3.888,0,0,0,171.6,128.505Z" transform="translate(-54.412 -38.659)"/><path class="e" d="M161.662,150.667c.351.213.292.157.329.263.158-.014.059-.024.235.026a2.783,2.783,0,0,1,.6.277,3.22,3.22,0,0,1,1.437,2.321,4.479,4.479,0,0,1-.268,2.329h0a3.215,3.215,0,0,1-4.958,1.573,3.736,3.736,0,0,1-1.121-4.294,3.539,3.539,0,0,1,2.234-2.419A3,3,0,0,1,161.662,150.667Zm-.118.906a1.986,1.986,0,0,0-.841.254h0a3.01,3.01,0,0,0-.959.963h0a2.874,2.874,0,0,0-.35.657,5.305,5.305,0,0,0-.152.514,2.062,2.062,0,0,0,.9,2.419,1.872,1.872,0,0,0,1.342.131,2.042,2.042,0,0,0,1.155-1.212h0a3.628,3.628,0,0,0,.2-.578,3.764,3.764,0,0,0,.117-.952,2.563,2.563,0,0,0-.22-1.051,1.793,1.793,0,0,0-.932-.931h0l-.223-.218a.18.18,0,0,1-.037.006Z" transform="translate(-52.34 -46.596)"/><path class="e" d="M22.865,134.557a16.351,16.351,0,0,1,5.37,1.085c2.335.842,1.924.657,2.269.962l.04.329,0,.006-.218.254-.347.049h0a34.933,34.933,0,0,0-6.661-1.183,3.519,3.519,0,0,0-1.828.25l-.016.005a3.023,3.023,0,0,0-1.027,1.039h0a11.312,11.312,0,0,0-1.155,3.171,29.147,29.147,0,0,0-.632,8.675c.122,1.735.409,3.9,1.747,4.995,1.643,1.35,4.937.986,7.059.65,1.813-.258,1.307-.3,1.888-.166l.2.287h0l-.076.339-.293.2a37.865,37.865,0,0,1-4.7.864c-2.077.216-4.552-.191-5.8-1.857-2.186-2.623-1.729-10.383-.972-13.752.456-2.044,1.089-4.469,2.837-5.623a3.4,3.4,0,0,1,1-.447A4.929,4.929,0,0,1,22.865,134.557Z" transform="translate(-4.142 -41.093)"/><path class="e" d="M25.572,138.13a5.443,5.443,0,0,1,1.191,1.84h0a16.667,16.667,0,0,1,.634,5.257,26.529,26.529,0,0,1-.755,5.928v.006c-.211.812-.145.532-.217.8h0a5.54,5.54,0,0,1-1.788,3.023h0l-.346.088-.3-.162h0l-.083-.325.16-.323a5.249,5.249,0,0,0,1.041-2.629h0a28.9,28.9,0,0,0,.705-8.965c-.121-1.158-.344-2.227-.363-2.3h0a5.448,5.448,0,0,0-.587-1.688h0l-.069-.351.145-.285h0l.315-.077Z" transform="translate(-6.481 -42.265)"/><path class="a" d="M26.183,141.4c-1.686,2.559-1.931,5.171-2.073,7.894a12.1,12.1,0,0,0,.031,1.719c.05.526.062,2.177.572,2.563.074.058.394-.243.453-.307,1.307-1.408,1.395-6.826,1.4-8.756-.006-.355.016-2.661-.761-2.343" transform="translate(-6.545 -43.44)"/><path class="e" d="M26.047,140.791l.006,0,.175.277c-.06.46-.016.277-.151.557h0c.587.457.692,2.073.712,2.819.143,2.279.029,6.751-1.155,8.71-.409.62-1.1,1.222-1.736.793a3.162,3.162,0,0,1-.816-2.261h0a20.422,20.422,0,0,1-.105-2.378c.148-3.392.383-5.706,2.445-8.386v0l.3-.183Zm-1.489,6.85a21.934,21.934,0,0,0-.1,2.472c0,.111.1,1.633.138,1.826.769-2.006,1.066-7.894.959-9.087a19.665,19.665,0,0,0-1,4.789Z" transform="translate(-6.162 -43.213)"/><path class="e" d="M48.885,132.534c.035.008,12.231,3.127,12.606,3.235a31.154,31.154,0,0,1,5.02,1.548,4.567,4.567,0,0,1,1.686,1.327,8.192,8.192,0,0,1,1.256,4.46,9.978,9.978,0,0,1-.19,2.483,26.424,26.424,0,0,1-.952,3.016l-.229.263-.338.037c0-.005-.258-.219-.263-.223-.073-.634-.108.131.572-2.629a8.585,8.585,0,0,0,.2-1.451c.066-1.517-.281-4.22-1.3-5.192-.718-1.183-7.513-2.605-14.721-4.469-2.639-.683-6.58-1.882-9.3-1.662a2.324,2.324,0,0,0-1.435.7,10.366,10.366,0,0,0-.92,1.041,13.7,13.7,0,0,0-1.682,2.892,20.635,20.635,0,0,0-1.535,6.446,19.452,19.452,0,0,0,.476,6.294,6.112,6.112,0,0,0,1.14,2.409c1.844,2.229,6.63,1.632,9.5,1.349h0l.34.1.175.3v.006l-.1.335-.311.177a27.089,27.089,0,0,1-7.149.3c-4.036-.645-4.914-3.649-5.491-7.6a21.211,21.211,0,0,1,2.449-12.41,10.747,10.747,0,0,1,2.777-3.27,4,4,0,0,1,1.147-.46C44.162,131.506,46.414,132,48.885,132.534Z" transform="translate(-10.566 -40.133)"/><path class="e" d="M34.6,146.189v-.012l.018.01.021.007v-.012l.039.014v-.015a.164.164,0,0,0,.036.011v-.015h0l.027.007-.005-.016.03.008-.005-.016h.027l-.005-.015h.024l-.005-.015.009,0h.012l-.009-.016h.018l-.011-.016h.011l-.011-.016h0l-.006-.006h0l.006.006-.006-.006.006.006h0v0l.005.007h.006l.006.007h.006v0l.024.013h.006a4.133,4.133,0,0,0,.533.141c.152.066.173.109.289.167.32.255-.066-.12.69.639-.575.434-.622.517-1.117.635h0a.64.64,0,0,1-.251-.011,2.209,2.209,0,0,1-1.412-.74v0a.738.738,0,0,1,.037-.723l.908-.066h0Z" transform="translate(-9.78 -45.044)"/><path class="e" d="M35.89,155.676c.2.11,0-.058.595.541a2.816,2.816,0,0,1-.911.672h0l-.093.041h0a.662.662,0,0,0-.086.033,1.814,1.814,0,0,0-.685.221l-.01.009-.009.006h0l-.015.009-.009.009-.019.011-.009.009-.009.005-.016.014h0l-.025.023-.01.006-.022.02h-.018l-.012.005H34.5l-.255.007c-.164-.007.062.12-.846-.509V156.8c.024-.543.1-.572.388-.795a2.624,2.624,0,0,1,.743-.373,1.526,1.526,0,0,1,1.356.042Z" transform="translate(-9.737 -48.272)"/><path class="e" d="M46.618,135.888l.02.026h.006a7.083,7.083,0,0,1,1.506,2.536c.18.627.146.409.143.478.023.088.082.352.1.423a21.219,21.219,0,0,1,.359,5.574,19.112,19.112,0,0,1-1.3,5.984c-.591,1.423-1.338,3.4-2.874,3.549-.394-.017-.235.053-.664-.2l-.1-.329v-.006l.17-.292.338-.115h.127l.028-.008h.009l.089-.03.007-.006.015-.005.009-.006h.009a.147.147,0,0,0,.032-.016l.006-.006c.117-.034.363-.273.629-.751v-.006a12.2,12.2,0,0,0,.767-2.041,21.221,21.221,0,0,0,1.088-4.4,20.867,20.867,0,0,0,.031-5.161,19.046,19.046,0,0,0-.405-2.225,9.2,9.2,0,0,0-.867-2.414h0l-.066-.351.155-.284h0l.318-.071Z" transform="translate(-13.305 -41.498)"/><path class="a" d="M46.768,139.2c-1.894.938-2.653,3.07-3.1,4.995a21.17,21.17,0,0,0-.354,5.965c.239,1.23,1.157,3.705,2.2,2.84,2.037-1.689,2.108-7.745,2.012-10.4a4.849,4.849,0,0,0-.887-3.2" transform="translate(-13.099 -42.686)"/><path class="e" d="M46.783,138.775v.006l.016.321a4.168,4.168,0,0,1,.809,2.067,28,28,0,0,1,.212,2.855,21.818,21.818,0,0,1-.646,6.49c-.352,1.308-1.241,3.25-2.568,3.192-1.134-.05-1.8-1.561-2.153-2.641-.382-1.329-.478-1.686-.281-4.587.03-.691.218-1.854.247-2.06h0c.482-2.458,1.418-4.8,3.709-5.828.07-.026-.009-.014.394-.028Zm-2.9,5.911h0a25.243,25.243,0,0,0-.3,3.139,14.09,14.09,0,0,0,.047,1.855,6.1,6.1,0,0,0,1.035,2.5l.009.007h0a2.028,2.028,0,0,0,.263-.277c1.517-1.732,1.807-9.689,1.487-11.256a3.18,3.18,0,0,0-.182-.616,2.059,2.059,0,0,0-.15-.3C44.779,140.942,44.28,142.794,43.882,144.686Z" transform="translate(-12.709 -42.468)"/><path class="f" d="M46.837,143.667a2.478,2.478,0,0,1-.214,1.166h0c-.854,2.319-.345,1.648-1.243,3.988h0l-.225.311-.292.105h-.006l-.257-.173a1.5,1.5,0,0,1-.165-.719,6.167,6.167,0,0,1,0-1.174,15.927,15.927,0,0,1,.806-2.878h0a1.84,1.84,0,0,1,.57-.844c.27-.248.091-.157.829-.394Z" transform="translate(-13.509 -44.008)"/><path class="f" d="M26.3,148.318a3.567,3.567,0,0,1-.337,1.418c-.141.323-.006.15-.6.7-.473-.606-.411-.472-.48-.789a5.083,5.083,0,0,1,.02-2.209c.085-.806.081-.821.148-.965a4.052,4.052,0,0,1,.3-.456l.5-.4C26.624,146.573,26.508,146.383,26.3,148.318Z" transform="translate(-6.778 -44.885)"/><path class="a" d="M86.452,149.444a2.026,2.026,0,0,1,1.362.419c1.064.777,1.249,2.432,1.071,3.708-.3,2.11-1.675,3.139-3.216,3.072a2.509,2.509,0,0,1-.781-.192l-.263-.25s-.041-.329-.04-.329h0l.219-.242c.671-.105.693,0,1.057-.141h0a1.739,1.739,0,0,0,.571-.321h0a2.756,2.756,0,0,0,.805-1.1c.294-.71.341-2.438-.206-2.913v-.006l-.009-.007-.011-.021s-.091-.078-.093-.08a1.184,1.184,0,0,1-.112-.075H86.8a2.336,2.336,0,0,0-.268-.166h0a1.767,1.767,0,0,0-.368-.168h0c-.164-.066-.5-.164-.568-.185h0l-.313-.193-.121-.278h0l.145-.266.329-.168h.015A3.791,3.791,0,0,1,86.452,149.444Z" transform="translate(-27.283 -46.196)"/><path class="a" d="M120.618,192.632h0c.1.569.234.348-1.878,2.158-.961.836-5.7,4.435-8.386,6.151-.012.009-.17.122-.178.126h0l-.344.109-.3-.1h0l-.111-.292.1-.347v0c.066-.078-.012-.012.543-.718a9.374,9.374,0,0,1,2.163-1.84c3.478-2.475,3.841-3.149,7.721-5.344h0l.369-.066Z" transform="translate(-35.798 -60.946)"/><path class="a" d="M212.283,262.878a6.307,6.307,0,0,1,.976.678c1.38,1.571,2.385,2.175,3.578,3.372.509.513.283.191.584.695l-.029.316h0l-.271.17-.381-.032h0a8.32,8.32,0,0,1-1.8-.911,21.7,21.7,0,0,1-2.257-2.054,3.627,3.627,0,0,1-1.088-1.643l-.006-.009.055-.639Z" transform="translate(-70.825 -85.066)"/></g></svg>