<svg xmlns="http://www.w3.org/2000/svg" width="139.963" height="125.895" viewBox="0 0 139.963 125.895"><defs><style>.a{fill:#ff8188;}.b{fill:#ff656f;}.c{fill:#ff4756;}.d{fill:#dfebfa;}.e{fill:#b1dbfc;}</style></defs><g transform="translate(0 -25.73)"><path class="a" d="M69.98,25.731A28.153,28.153,0,0,0,45.662,39.487L4.089,108.625a28.338,28.338,0,0,0,24.32,43h83.145a28.338,28.338,0,0,0,24.32-43L94.3,39.487A28.156,28.156,0,0,0,69.98,25.731Z" transform="translate(0 -0.001)"/><path class="b" d="M14.222,123.346a28.362,28.362,0,0,1,4.089-14.722L59.884,39.486A28.11,28.11,0,0,1,77.093,26.619a28.758,28.758,0,0,0-7.113-.889A28.153,28.153,0,0,0,45.662,39.486L4.089,108.624a28.338,28.338,0,0,0,24.32,43H42.631a28.339,28.339,0,0,1-28.409-28.28Z" transform="translate(0)"/><path class="b" d="M101.3,68.837a16.452,16.452,0,0,1,14.224,8.044L157.1,146.02a16.584,16.584,0,0,1-14.221,25.145H59.731A16.585,16.585,0,0,1,45.51,146.02L87.083,76.881A16.444,16.444,0,0,1,101.3,68.837" transform="translate(-31.322 -31.323)"/><path class="c" d="M59.732,146.02l41.573-69.138a16.413,16.413,0,0,1,7.109-6.462,16.72,16.72,0,0,0-7.112-1.582,16.444,16.444,0,0,0-14.218,8.044L45.511,146.02a16.584,16.584,0,0,0,14.222,25.145H73.954A16.584,16.584,0,0,1,59.732,146.02Z" transform="translate(-31.323 -31.324)"/><path class="d" d="M236.783,162.386c-6.352,0-7.525,5.934-7.173,12.047l.969,21.632c1.375,6.759,11.036,6.743,12.407,0l.969-21.632C244.309,167.838,243.137,162.386,236.783,162.386Z" transform="translate(-166.802 -99.299)"/><circle class="d" cx="6.972" cy="6.972" r="6.972" transform="translate(63.009 110.202)"/><g transform="translate(62.752 63.087)"><path class="e" d="M238.091,196.065l-.969-21.632c-.269-4.659.352-9.21,3.473-11.114a7.228,7.228,0,0,0-3.812-.933c-6.352,0-7.525,5.934-7.173,12.046l.969,21.632a6.355,6.355,0,0,0,9.957,3.882,6.158,6.158,0,0,1-2.446-3.882Z" transform="translate(-229.555 -162.386)"/><path class="e" d="M238.006,341.711a6.965,6.965,0,0,1,3.217-5.873,6.972,6.972,0,1,0,0,11.746,6.965,6.965,0,0,1-3.217-5.873Z" transform="translate(-230.238 -287.624)"/></g></g></svg>