<svg xmlns="http://www.w3.org/2000/svg" width="212" height="235.135" viewBox="0 0 212 235.135"><defs><style>.a{fill:#f97d7d;}.a,.b{fill-rule:evenodd;}</style></defs><g transform="translate(-19.282 -5)"><path class="a" d="M72.444,192.6c-2.438,2.485-5.039,4.8-7.71,7.037-2.636,2.2-5.173,4.582-7.962,6.592-.649.469-1.329-.538-.82-1.071,2.4-2.514,5.146-4.7,7.7-7.043a100.139,100.139,0,0,1,7.965-6.589C72.264,191.049,72.965,192.07,72.444,192.6Zm-22.473-35c-4.907,1.784-9.9,3.393-14.951,4.72-5.088,1.336-10.335,1.978-15.291,3.3a.658.658,0,0,0,.206,1.282c5.232.144,10.682-1.2,15.715-2.5a86,86,0,0,0,14.959-5.389C51.4,158.64,50.8,157.3,49.971,157.6Zm4.459-33.09a107.513,107.513,0,0,0-10.72-5.3c-3.772-1.7-7.409-3.01-11.189-4.566-.642-.264-1.156.805-.525,1.118,3.616,1.8,6.962,3.661,10.682,5.362a108.539,108.539,0,0,0,11.166,4.633.7.7,0,0,0,.587-1.243Zm25.6,10.506c.243-.96-1.135-1.366-1.592-.558a23.293,23.293,0,0,0-2.518,10.487c-.139,3.439.071,7.47,1.842,10.51.369.633,1.5.262,1.341-.435A34.611,34.611,0,0,1,78.118,145,46.948,46.948,0,0,1,80.031,135.021Zm5.329-12.985a15.009,15.009,0,0,0-4.773,7.391.883.883,0,0,0,1.648.618,33.414,33.414,0,0,1,3.988-6.721C87,122.384,86.026,121.594,85.36,122.036Zm-1.291,57.052a42.369,42.369,0,0,1-15.113-33.373,43.411,43.411,0,0,1,17-33.136.748.748,0,0,0-.869-1.216A43.756,43.756,0,0,0,66.81,147.385c.208,16.089,8.213,27.966,20.766,36.986,6.892,4.955,14.757,10.183,16.516,19.108.155.788,1.357.734,1.276-.105C104.242,191.7,92.053,185.781,84.069,179.088Zm98.681-46.112c-.354-.712-1.6-.169-1.292.576a34.7,34.7,0,0,1-.536,27.741c-4.952,10.489-14.17,14.373-21.221,22.553-3.551,4.121-6.486,9.324-5.971,14.944a.671.671,0,0,0,1.339-.021c.342-6.7,3.973-11.688,8.474-16.059,7.1-6.9,14.74-11.136,19.155-20.625C186.947,152.957,187.259,142.073,182.75,132.976Zm7,61.013c-3.243-1.908-7.471-4.579-10.881-5.946-.765-.307-1.086.765-.555,1.2,2.828,2.333,7.22,4.768,10.446,6.7,3.553,2.132,7.093,4.284,10.8,6.136a.854.854,0,0,0,.91-1.444c-3.452-2.411-7.095-4.519-10.723-6.65Zm38.68-43.314a115.56,115.56,0,0,0-12.795-.556c-4.323-.07-8.644-.108-12.966.01-.748.02-.811,1.28-.053,1.335,4.258.3,8.523.459,12.791.579a117.1,117.1,0,0,0,12.973.018.7.7,0,0,0,.05-1.385Zm-22.531-34.7a68.856,68.856,0,0,0,10.5-3.871,53.573,53.573,0,0,0,9.743-5.531c.765-.586-.11-1.714-.922-1.339-3.324,1.536-6.469,3.438-9.778,5.008-3.169,1.5-6.748,3.253-9.961,4.573a.624.624,0,0,0,.419,1.156ZM157.2,81.838c-9.625-7.251-17.585-10.156-29.416-12.694-.683-.147-.48-1.208.187-1.185a43.508,43.508,0,0,1,12.98,2.724c-2.939-6.611-8.565-11.415-13.339-12.584-5.368,2.205-13.1,8.631-15.438,11.446,2.985,8.757-5.946,16.015-16.506,11.791A59.8,59.8,0,0,0,78.593,91.978c4.489,2.027,9.17,9.944,10.614,16.631,6.37-2.376,13.762-4.928,20.714-4.224s28.424,11.44,37.927,13.552c-4.649-7.369-1.22-24.855,9.348-36.106Z" transform="translate(0 -10.046)"/><path class="b" d="M110.908,196.3c7.391,10.682,3.486,26.65,11.961,36.956,9.722,11.823,29.749,7.039,35.462-4.107,5.7-11.129,1.914-18.892,7.251-37.073C148.746,202.05,122.112,200.173,110.908,196.3Zm44.1,26.668c-3.07,3.914-8.042,6.553-12.677,8.089A28.363,28.363,0,0,1,127.42,232.2a.634.634,0,0,1,.168-1.242A36.028,36.028,0,0,0,141.8,229a36.8,36.8,0,0,0,12.4-7.082C154.837,221.39,155.432,222.433,155.009,222.972Zm1.969-10.26c-3.266,4.472-8.122,7.15-13.391,8.625-3.707,1.038-14.822,2.659-18.759,1.556-.632-.178-.568-1.2.024-1.2a81.217,81.217,0,0,0,17.745-2.315,29.563,29.563,0,0,0,13.262-7.545c.56-.574,1.6.216,1.119.875Zm.027-10.907c.582-.363,1.433.371.882.959-3.649,3.9-11.2,7.135-16.339,8.489a42.729,42.729,0,0,1-18.436.954c-.825-.144-.568-1.319.234-1.254a50.943,50.943,0,0,0,17.711-1.577c6.824-1.917,10.465-4.15,15.948-7.571Zm-2.286-77.367c-4.652-1.968-6.723-.227-7.964,4.256a115.9,115.9,0,0,0-4.066,25.907,57.4,57.4,0,0,1-15.236.635c-1.021-4.575-4.476-19.245-7.054-22.9a4.415,4.415,0,0,0-6.67-.987c-2.473,1.858-6.568,9.3-7.993,12.387-2.027,4.388-.863,6.7,3.366,8.608a56.675,56.675,0,0,0,16.69,4.622c1.223,5.585,2.2,11.128,2.913,16.807.761,6.071,1.232,12.405,1.711,18.524a.614.614,0,0,0,1.226-.031,124.216,124.216,0,0,0-1.048-18.94c-.679-5.414-1.594-10.817-2.725-16.155a59.705,59.705,0,0,0,14.749-.583,115.594,115.594,0,0,0,3.631,32.27c.292,1.108,1.978.609,1.7-.5a119.952,119.952,0,0,1-3.443-32.1c6.243-1.245,17.38-4.992,21.572-10.189,3.784-4.691,1.767-10.308-1.8-14.514a26.134,26.134,0,0,0-9.567-7.114Zm-43.112,26.974c-4.824-1.968-6.387-2.655-3.664-7.918,1.451-2.8,4.226-8.006,6.379-10.135,1.192-1.176,2.809-1.784,4.091-.4,2.27,2.458,6.107,18.351,6.953,22.03a55,55,0,0,1-13.759-3.576Zm53.051-6.649c-3.5,4.712-14.289,8.25-20.069,9.473.338-7.189,1.82-19.313,4.388-26.363.811-2.217,1.988-2.635,4.216-1.906,4.682,1.536,10.2,6.264,12.2,10.694a7.736,7.736,0,0,1-.734,8.1ZM114.885,38.415c-2.356.875-2.684,3.55-2.133,5.788a2.72,2.72,0,0,0-2.241.811c-1.1-2.231-3.636-4.166-6.088-2.774-2.065,1.172-2.159,4.287-1.584,6.308-.973.389-2.167.6-3.2,1a.585.585,0,0,0,.341,1.105c1.022-.188,2.278-.568,3.324-.85,1.091,2.379,3.315,4.64,6.126,3.209s2.505-4.2,1.615-6.715a1.98,1.98,0,0,1,2.135-.771c.843,2.143,2.87,5.022,5.526,3.737s2.168-4.784,1.42-7.039S117.494,37.448,114.885,38.415Zm-5.954,13.4c-2.3,1.216-4.02-1.2-4.674-3.07-.542-1.554-.8-4.319.763-5.347,2.051-1.346,4.026,1.279,4.667,2.954C110.4,48.221,111.063,50.689,108.931,51.815Zm9.259-3.723c-2.206.927-3.419-1.689-4.069-3.324-.675-1.7-.869-4.473,1.194-5.166,2.045-.688,3.282,1.855,3.763,3.405C119.579,44.621,119.912,47.368,118.191,48.091Zm-10.729.735c.3.66.262,1.144-.12,1.459-.512.429-1.023.081-1.346-.472-.225-.385-.466-1.279.13-1.649C106.634,47.853,107.261,48.385,107.462,48.827Zm9.811-3.389a1.317,1.317,0,0,1-.324,1.326c-.52.342-1.088-.248-1.243-.747-.19-.608-.156-1.27.243-1.534.63-.412,1.188.443,1.325.955Zm-2.588,6.184c.332-.312.448-.541.153-.921a9.567,9.567,0,0,0-1.9-1.613c-.542-.381.046-1.277.616-.973a8.3,8.3,0,0,1,1.759,1.3c1.409,1.336,1.224,2.556-.336,3.656a3.953,3.953,0,0,1-2.163.829.634.634,0,0,1-.248-1.126C113.065,52.371,113.977,52.286,114.685,51.622ZM110.2,56.69a5.368,5.368,0,0,0,3.139-.655c.75-.416,1.129.531.591.949a6.618,6.618,0,0,1-3.8.957,6.23,6.23,0,0,1-3.661-1.224c-.5-.419-.022-1.358.6-1.029a6.392,6.392,0,0,0,3.134,1Zm-2.706,5.08c3.421.356,7.327.749,10.216-1.517,3.532-2.766,2.179-6.362.914-9.255-.344-.786.744-1.1,1.049-.48,1.789,3.625,2.533,7.6-.936,10.5-3.208,2.676-7.51,2.443-11.4,1.888-.641-.092-.483-1.2.156-1.134Zm32.37-15.529c3.175-2.277,6.5-4.392,8.381-7.952,2.053-3.892,2.208-8.419,2.33-12.723a5.568,5.568,0,0,1-6.081-4.892.592.592,0,0,1,1.15-.259,4.363,4.363,0,0,0,4.533,3.79c1.322-.076,1.8.048,1.77,1.135-.131,4.6-.319,9.357-2.471,13.532-1.911,3.71-5.441,6.254-8.929,8.37-.586.358-1.241-.6-.684-1Zm11.8-39.1a.6.6,0,0,1,.784-.892,10.975,10.975,0,0,1,3.332,4.451,10.9,10.9,0,0,1,.876,5.539.7.7,0,0,1-1.346-.092c-.213-1.978-.027-2.909-.829-4.9a12.737,12.737,0,0,0-2.818-4.105Zm6.632,9.1a15.892,15.892,0,0,0,1.249-5.215,15.521,15.521,0,0,0-.765-5.313c-.189-.668.784-1,1.126-.41a12.88,12.88,0,0,1,1.038,5.775,12.592,12.592,0,0,1-1.415,5.719.685.685,0,0,1-1.234-.556Zm2,2.455a12.581,12.581,0,0,0,2.865-3.212,15.694,15.694,0,0,0,1.682-4.062.6.6,0,1,1,1.173.208,11.8,11.8,0,0,1-1.676,4.541,14.038,14.038,0,0,1-3.126,3.616c.248,3.756.385,7.524.554,11.285.572,12.746-.191,17.475-11.176,25.992-.73.568-1.541-.614-.816-1.176,10.984-8.535,11.055-13.018,10.548-25.528-.144-3.56-.329-7.121-.4-10.683a1.357,1.357,0,0,1,.376-.979ZM94.968,60.613c-6.222,7.568-9.806,15.014-9.345,25.021a.613.613,0,0,1-1.216.148c-1.3-9.433,3.392-19.091,9.456-26.027C94.458,59.081,95.545,59.915,94.968,60.613Zm.615,37.648A52.737,52.737,0,0,1,81.4,102.755C60.447,105.849,66.655,83.01,73.18,72.511A111.459,111.459,0,0,1,84.935,56.868a24.523,24.523,0,0,1-.442-15.761c.269-.84,1.6-1.1,1.272.435-1.318,6.116-1.112,8.838.334,14.53a1.9,1.9,0,0,1-.366,2.057,73.113,73.113,0,0,0-13.3,18.722c-5.027,10.533-8.137,27.243,9.375,24.369,4.91-.805,8.619-2.595,13.2-3.991.6-.182,1.194.69.57,1.032Zm110.643,19.423c1.229,2.7,5.526,11.122,5.536,13.568.014,3.287-3.144,5.18-5.767,2.631-3.186-3.094-4.566-6.532-8.649-9.864-2.529-2.064-5.866-3.589-7.656-6.333a7.135,7.135,0,0,1-.743-6.791c.3-.74,1.541-.372,1.347.405a6.85,6.85,0,0,0,.912,5.7c1.424,1.965,5.027,3.828,7.126,5.549,4.228,3.461,5.359,6.081,8.583,9.711,1.589,1.789,3.135,1.048,3.142-1.026,0-1.859-4.225-9.86-5.519-12.615-1.1-2.351-2.75-5.245-3.324-7.661-.195-.811.98-1.811,1.445-.557,1.008,2.727,2.478,4.887,3.569,7.287Zm34.046-67.75c-.374,4.178-4.707,20.757-5.7,23.9-1.842,5.831-7.436,5.244-11.947,3.108-.8-.377-.276-1.633.547-1.422,3.388.865,8.165,2.294,9.533-2.241,1.383-4.588,5.736-19.3,5.844-23.381.033-1.247-.755-1.7-1.714-.956-3.243,2.514-7.7,10.4-9.9,14.06-.348.579-1.412.243-1.161-.446,1.254-3.433,7.223-13.3,10.418-15.222a2.644,2.644,0,0,1,4.081,2.6Zm-53.393,59.012a112.306,112.306,0,0,0,.763-12.892c3.572-8.195,6.43-17.713,8.846-26.295a63.345,63.345,0,0,1,10.721,4.425c-.028,6.922-1.545,31.059-2.818,33.181C200.086,109.651,189.695,109.211,186.879,108.946ZM223.486,60.9c-.088,5.368-3.959,14.892-5.189,17.566-3.549-2.665-15.224-8.415-22.135-10.648a.885.885,0,0,0-1.112.568c-1.847,6.73-3.778,13.459-6.2,20.008-4.2,11.343-10.592,21.709-29.16,17.919C149.23,85.984,186.13,46.769,191.636,45.621c6.859-1.432,27.629,11.758,31.85,15.279Zm-116.908,8.27c-.7-2.4-5.351-8.937-6.953-10.651a2.642,2.642,0,0,0,1.123-2.27c-.062-.66-1.089-.86-1.221-.13a2.055,2.055,0,0,1-3.243,1.515c-1.635-1.033-2.788-3.936-1.946-5.8a1.661,1.661,0,0,1,2.445-.589.664.664,0,0,0,.811-.081,13.47,13.47,0,0,0,2.624-10.529A32.466,32.466,0,0,0,112.66,37.22c4.66-2.357,8.132-4.991,6.771-11.641-.811-3.973-4.066-8.224-9.22-7.016-6.5,1.524-18.15,12.219-18.7,18.669-2.2.494-4.034,1.554-4.436,3.928-.722,4.263,2.575,9.253,5.747,11.77-.1,3.112,1.965,7.069,5.7,6.186a87.612,87.612,0,0,1,7.035,10.672c.362.654,1.2-.014,1.026-.619ZM101.69,27a19.178,19.178,0,0,1,7.245-5.248c2.376-1,6.358-1.129,6.666,2.176a.712.712,0,0,1-1.323.35c-1.11-2.479-3.892-1.6-5.809-.669a25.683,25.683,0,0,0-5.962,4.224A.584.584,0,0,1,101.69,27ZM145.466,16.45a4.434,4.434,0,0,1,6.99-2.034,4.312,4.312,0,0,1,1.288,5.119.673.673,0,0,1-1.291-.33c.425-1.768-.023-3.493-1.865-4.164a3.219,3.219,0,0,0-3.979,1.865.616.616,0,1,1-1.143-.457Z" transform="translate(-9.023)"/></g></svg>