<svg xmlns="http://www.w3.org/2000/svg" width="235" height="191.41" viewBox="0 0 235 191.41"><defs><style>.a,.b,.c,.d{fill-rule:evenodd;}.b{fill:#010101;}.c,.e{fill:#f97d7d;}.d{fill:#fff;}</style></defs><g transform="translate(-5 -31.892)"><path class="a" d="M39.75,230.947a7.481,7.481,0,0,0-4.632,6.921v21.886H13.009V237.721a7.465,7.465,0,0,1,7.462-7.464H39.75Z" transform="translate(-1.519 -37.621)"/><path class="a" d="M36.618,234.073c-1.275,2.431-.92,2.841-.81,10.256.011,1.272.075,15.124-.027,15.516a.933.933,0,0,1-.284.42c-.447.318,1.5.216-22.7.216a.934.934,0,0,1-.914-.781c-.016-.2-.028-22.259.011-22.823a8.364,8.364,0,0,1,5.214-7.078c2.113-.81,2.445-.6,13.182-.476,10.085.144,9.308.1,9.547.217a.578.578,0,0,1,.288.516c-.009.783,0,.648-.015.787a.581.581,0,0,1-.347.437l-.007-.009A6.824,6.824,0,0,0,36.618,234.073Zm-6.792-3.425v.144l-9.569.111a6.615,6.615,0,0,0-6.4,5.3c-.167.891-.135-.964-.135,22.425H33.979c0-21.468-.011-22.384.828-24.1a8.193,8.193,0,0,1,3.587-3.881Z" transform="translate(-1.302 -37.421)"/><path class="a" d="M191.107,93.186l.34.258c.162.862.07-.088-.31,2.964-.314,2.037-.5,5.569-.53,5.875-.405,7.2.661,15,7.225,18.058,1.814.772,2.232.529,2.713,1.027.293.452.173.2.224,3.169,0,3.956.284,11.021.273,11.355a.68.68,0,0,1-.62.6,20.486,20.486,0,0,0-2.709.446l-.441-.092-.254-.36v-.006l.086-.43.37-.262h0c.729-.175,1.4-.393,2.168-.543,0-.094-.776-6.762-.776-12.552a12.431,12.431,0,0,1-8.33-7.362,21.161,21.161,0,0,1-1.72-6.888,35.923,35.923,0,0,1,.269-9.253,39.734,39.734,0,0,1,1.321-5.578l.276-.35.417-.073Z" transform="translate(-34.827 -11.625)"/><path class="a" d="M226.5,98.74a6.1,6.1,0,0,1,4.407,5.525,6.215,6.215,0,0,1-.026.849,6.04,6.04,0,0,1-.866,2.538c-1.771,2.6-4.265,3.478-7.367,3.942a67.753,67.753,0,0,1-3.553,9.667c.1,4.519.024,7.574.3,13.233.821.1,1.6.236,2.4.394.985.2.743.114,1.209.421l.1.429c-.006.009-.243.364-.243.374a1.319,1.319,0,0,1-.915.038c-3.347-.457-3.241-.156-3.687-.464h0c-.272-.259-.272-.113-.716-5.363-.344-5.1-.268-5.908-.336-8.873a1.459,1.459,0,0,1,.187-1.025,60.3,60.3,0,0,0,3.548-9.83c.243-1.023.891-.7,2.635-1.061a8.169,8.169,0,0,0,4.3-2.175,4.306,4.306,0,0,0-.679-6.4,6.077,6.077,0,0,0-2.549-1.143,14.7,14.7,0,0,0-2.321-.312l-.405-.189-.162-.391v-.006l.175-.389.405-.18h0A12.1,12.1,0,0,1,226.5,98.74Zm-9.021,21.595-.03.037-.011.01.056-.059Zm.081-.074c-.093.081-.029.026.063-.048Z" transform="translate(-40.244 -12.596)"/><path class="a" d="M197.932,97.938l.295.258.1.45c0,3.1-.84,3.492-.657,9.379,2.587-.022,2.032-.138,2.755.106l.22.36v.006l-.126.405-.4.25h0a27,27,0,0,1-3.183.684.953.953,0,0,1-.7-.162,1,1,0,0,1-.291-.363c-.354-1.08-.243-6.518.459-9.076,0-.066.4-1.037.4-1.044.033-.066.373-.778.414-.846h0l.324-.331.381-.069ZM196.742,108.024Z" transform="translate(-36.179 -12.526)"/><path class="a" d="M209.788,112.37c.255.39.318.314.451,1.557a4.862,4.862,0,0,1-1.03,3.463,3.9,3.9,0,0,1-2.194,1.488,3.994,3.994,0,0,1-3.989-1.343,3.851,3.851,0,0,1-.541-1.075c0-.585-.081-.357.194-.793h0c1.331.324.388.075,1.706.8a3.92,3.92,0,0,0,1.485.617,2.15,2.15,0,0,0,2.075-1.177,7.247,7.247,0,0,0,.925-2.866c.011-.185-.022-.057.168-.578l.351-.219h0Z" transform="translate(-37.452 -15.239)"/><path class="a" d="M209.482,92.279a5.315,5.315,0,0,1,1.216,1.158,1.561,1.561,0,0,1,.41.873l-.145.377-.008,0-.38.116a1.852,1.852,0,0,1-.75-.347,9.864,9.864,0,0,0-1.508-.69,3.383,3.383,0,0,0-2.62-.186h0a2.6,2.6,0,0,0-.335.162h0a2.28,2.28,0,0,0-.25.17s-.542.283-.676.361c-.5.254.088.11-1.108.365-.162-.766-.275-.778.1-1.516a2.206,2.206,0,0,1,.972-1h0a4.191,4.191,0,0,1,.593-.291h0A5.207,5.207,0,0,1,209.482,92.279Z" transform="translate(-37.585 -11.309)"/><ellipse cx="1.713" cy="2.239" rx="1.713" ry="2.239" transform="translate(167.71 86.329)"/><path class="a" d="M218.068,91.666c1.2-6.819,2.011-15.838-5.072-19.744-2.81-1.552-5.967-1.959-8.995-2.89-2.13-4.363-6.685-11.167-11.364-12.432a13.58,13.58,0,0,0-14.63,5.672c-4.023,5.966-3.079,14.568,3.933,17.714,5.454,2.446,13.333,1.661,19.239.5,1.818-.357,3.534,1.122,5.3,1.661.929,4.49,3.647,7.552,8.069,8.66C215.81,91.124,218.068,91.666,218.068,91.666Z" transform="translate(-32.361 -4.608)"/><path class="b" d="M192.6,55.45c5.006,1.344,9.5,7.921,11.85,12.575,3.657,1.011,6.933,1.519,9.812,3.484,6.275,4.5,5.578,12.479,4.165,20.036-.092-.016-1.247-.219.007,0a.588.588,0,0,1-.43.467c-.215.038.071.088-2.736-.557a13.743,13.743,0,0,1-4.619-1.68,11.26,11.26,0,0,1-5.045-7.243c-1.353-.486-2.716-1.424-3.927-1.485-1.01-.045-14.944,3.837-22.672-1.8-6.28-4.862-5.541-14.117-.788-19.277A14.418,14.418,0,0,1,192.6,55.45Zm-6.4,1.783c-8.514,2.215-11.816,11.534-8.689,17.384,2.788,5.884,11.688,6.265,18.175,5.591,5.037-.557,5.057-.994,6.505-.777,1.574.279,2.681,1.151,4.236,1.723.936.29.324.8,1.511,3.454a9.908,9.908,0,0,0,1.467,2.3c2.194,2.562,4.943,3.043,7.975,3.8,0-.675,1.57-8.017-.627-13.231a9.692,9.692,0,0,0-2.72-3.8c-2.77-2.369-6.7-2.848-10.23-3.89-1.16-.351-.395-.193-2.836-4.133-1.955-3.033-5.212-7.3-8.671-8.341a11.843,11.843,0,0,0-6.1-.088Z" transform="translate(-32.141 -4.386)"/><path class="b" d="M96.816,34.88a39.075,39.075,0,0,1,22.908,26.078h0a38.867,38.867,0,0,1-5.51,33.676,38.373,38.373,0,0,1-13.6,11.879,39.064,39.064,0,0,1-8.428,3.276,39.634,39.634,0,0,1-31.514-5c-28.916-19.4-21.383-61.065,8.8-70.889a39.085,39.085,0,0,1,27.34.985Zm-20.923.545A36.53,36.53,0,1,0,112.777,91.3,37.093,37.093,0,0,0,117.7,60.98l-.015,0C112.107,42.863,93.712,32.041,75.893,35.424Zm43.827,25.534h0C119.547,60.4,119.562,60.443,119.719,60.958Z" transform="translate(-7.11 0)"/><path class="b" d="M89.072,61.3c.258,2.06,1.075,12.281,1.1,12.713.081,1.023.205,3.052.206,3.058,2.386.179,8.384-.145,12.114-.126,1.034.007.779-.028,1.3.182l.186.4v.006l-.162.405c-.643.308.09.111-2.993.435a57.962,57.962,0,0,1-11.192.543,1.019,1.019,0,0,1-.959-.478c-.145-.293-.113-.2-.2-1.713-.517-8.893-1.334-12.24-1.1-19.054.017-.421-.028-.224.186-.741l.377-.186h0C88.651,57.011,88.452,56.589,89.072,61.3Z" transform="translate(-15.615 -4.712)"/><path class="b" d="M56.435,80.617a8.265,8.265,0,0,1,1.164.238c.233.059.087,0,.635.274l.205.328c-.216.429-.081.286-.608.614a8.413,8.413,0,0,1-1.266.376,4.681,4.681,0,0,1-.918.062c-2.437.1-2.044.292-2.765.041-.365-.12-.122.01-.952-.54.534-.8.382-.626.69-.865a1.864,1.864,0,0,1,.672-.337A24.35,24.35,0,0,1,56.435,80.617Z" transform="translate(-8.901 -9.241)"/><path class="b" d="M127.942,78.425a2.578,2.578,0,0,1,.829.1c.064.015.384.112.421.126.547.194.272.018,1.049.7-.676.715-.472.585-1.026.782-.8.319-1.767.1-3.187.173a.98.98,0,0,1-.661-.172c-.306-.147-.067.008-.877-.576.554-.776.43-.635.683-.828a1.12,1.12,0,0,1,.75-.306C126.65,78.382,127.167,78.4,127.942,78.425Z" transform="translate(-22.662 -8.82)"/><path class="b" d="M87.4,40.911a4.339,4.339,0,0,1,.415.8,11.131,11.131,0,0,1,.145,1.164c.2,1.882.474,2.836-.1,4.382l-.31.243h-.011l-.355-.162-.3-.452a12.272,12.272,0,0,1-.5-1.424c-.081-.365-.373-3.023-.373-3.117a1.664,1.664,0,0,1,.089-.925c.26-.567-.111-.092.676-1.028Z" transform="translate(-15.358 -1.612)"/><path class="b" d="M91.861,119.54a4.5,4.5,0,0,1-.616-2.092c-.3-1.912-.258-1.493-.112-2.046.194-.455.06-.212.634-.962a3.022,3.022,0,0,1,.951.891c.185.271.143.22.262.977.271,1.882.367,1.93.175,2.912-.075.38,0,.208-.56,1.014C91.814,119.582,91.951,119.723,91.861,119.54Z" transform="translate(-16.314 -15.656)"/><path class="c" d="M193.878,191.6s-.1,7.139-.276,10.388c7.949,1.415,15.786,3.337,23.721,4.83,2.269.426,4.5,1.593,6.8,1.288,12.214-1.634,24.609-1.663,36.917-2.227a3.358,3.358,0,0,0,3.135-3.971c-1.664-8.9-3.9-17.653-8.17-25.763-8.363-15.883-24.534-27.979-42.392-30.881a1.422,1.422,0,0,0-1.358.549c-3.732,4.914-9.256,9.805-15.41,10.917-3.647.657-9.737.117-11.443-3.869a8.892,8.892,0,0,1-.317-5.173,1.424,1.424,0,0,0-1.766-1.639,83.527,83.527,0,0,0-28.009,13.019,51.145,51.145,0,0,0-8.793,7.525,7.86,7.86,0,0,1,2.77,7.111,6.012,6.012,0,0,1,1.563,6.514c3.837,6.287-4.052,11.6-8.8,14.312,4.068,7.868,13.738,22.494,13.894,22.89.045.115,1.281,25.493,1.322,25.526a.081.081,0,0,0,.063.019c7.308-.74,14.689.157,22.03.01,10.607-.214,21.575-.642,32.2-.661a.082.082,0,0,0,.019-.162c-7.311-1.941-17.473-5.2-23.24-9.864-5.429,2.093-11.953,1.1-17.23-1.074-3.837-1.579-6.748-5.716-.9-7.044-2.553-2.228-5.377-6.55-.429-7.68-2.851-2.364-7.061-8.58-.795-9.679-.729-4.214-1.791-8.519-2.933-12.649-8.178-.763-7.629-6.035-4.619-7.293,4.392-1.835,10.752-.734,15.469-.752-.421-2.393-.817-4.807-1.06-7.226-.081-.816-.335-2.077.228-2.788,1.2-1.515,3.919-1.776,5.628-2.269,4.867-1.395,10.241-3.75,15.414-3.255,2.157.207,4.232,1.844,2.232,3.864-1.179,1.19-3.123,1.6-4.664,2.071-1.605.494-3.165,1.134-4.774,1.629-2.485.768-5.012,1.275-7.546,1.855a45.984,45.984,0,0,0,.626,5.576,67.414,67.414,0,0,1,11.831.486,18.159,18.159,0,0,1,4.87.887c1.683.711,2.359,2.765.478,3.728C198.319,191.611,195.927,191.6,193.878,191.6Z" transform="translate(-25.992 -21.497)"/><path class="a" d="M205.337,216.784a37.392,37.392,0,0,1,6.8.545c8.552,1.386,22.307,4.872,24.938,5.437,0-.771-.058-.486.149-1.049l.388-.2h.008l.41.147c.288.554.185.253.28,1.061.063.8.174,1.216-.377,1.472-.225.062-.081.068-1.656-.144-9.359-1.31-16.084-3.669-25.994-5.1-1.027-.148-3.886-.7-5.826-.991-.176-.026-.075.012-.526-.238l-.143-.395v-.006l.194-.372C204.5,216.748,204.2,216.781,205.337,216.784Z" transform="translate(-37.7 -35.065)"/><path class="a" d="M245.879,223.89c.333.019,2.651.562,3.2.7a6.447,6.447,0,0,1,1.814.658,2.936,2.936,0,0,1,1.023.676l.112.384v.006l-.284.283-.526.11c-2.1,0-2.066-.234-5.072-.852a2.808,2.808,0,0,1-1.4-.548c-.258-.162-.119-.016-.669-.788.769-.545.6-.46.9-.523A3.558,3.558,0,0,1,245.879,223.89Z" transform="translate(-45.343 -36.413)"/><path class="a" d="M267.778,222.583c.279.543.2.11.329,2.269a34.5,34.5,0,0,1-.434,7.2,29.245,29.245,0,0,1-8.11,15.843c-6.07,6.3-14.755,9.5-23.419,9.922-9.052.405-16.4-2.008-24.7-5.6-5.394-2.344-11.257-4.873-15.656-8.561a27.689,27.689,0,0,1-6.49,1.475c-4.734.452-9.779-.248-13.256-3.4h0l-.194-.4.126-.413c.011-.007.383-.193.4-.2.475.144.391.1.541.225a10.966,10.966,0,0,0,1.418.947c5.078,2.706,11.524,1.9,16.91-.035,1.959-.733.236.374,8.726,4.839a123.969,123.969,0,0,0,18.667,7.644c23.1,6.33,42.6-6.354,44.184-26.7.243-4.629-.2-3.971.146-4.987l.4-.2h0Z" transform="translate(-32.402 -36.14)"/><path class="a" d="M175.161,224.583c.426.257,1.378.7,1.742.9.343.185.243.143.594.345a12.661,12.661,0,0,0,4.441,1.551,13.929,13.929,0,0,0,4.393-.126c1.006-.224.366-.2,1.172-.19l.324.27,0,.006v.421a1.371,1.371,0,0,1-.679.59,8.154,8.154,0,0,1-2.873.956,13.316,13.316,0,0,1-7.42-1.679,5.7,5.7,0,0,1-1.783-1.34,10.7,10.7,0,0,1-.687-.841h0l-.152-.437.108-.374v0l.361-.145Z" transform="translate(-32.096 -36.526)"/><path class="a" d="M176.553,236.047c3.466.55,3.9,1.3,8.409.81a22.812,22.812,0,0,0,2.836-.445h0l.471.04.3.288v.006l-.027.417c-.319.346-.182.307-1.2.8a9.229,9.229,0,0,1-3.352.9,15.863,15.863,0,0,1-3.766-.13,7.333,7.333,0,0,1-4.154-1.63h0l-.276-.378-.011-.384v-.006l.3-.243.464-.042Z" transform="translate(-32.389 -38.719)"/><path class="a" d="M199.786,208.526h.007l.243.361a1.253,1.253,0,0,1-.262.778,13.6,13.6,0,0,1-6.553,5.065h0a24.846,24.846,0,0,1-12,2.168,10.9,10.9,0,0,1-4-1.411c-.147-.081-.07-.01-.405-.421v-.415l.31-.27c.486-.017.4-.032.486,0a17.125,17.125,0,0,0,3.69.638c3.211.257,6.328-.032,11.178-2.019a20.2,20.2,0,0,0,5.621-3.313c1.257-1.281.588-.8,1.254-1.226Z" transform="translate(-32.587 -33.486)"/><path class="a" d="M102.8,190.87h.007l.288.324-.007.442h0a51.98,51.98,0,0,0-3,24.045,30.582,30.582,0,0,0,2.273,8.487,16.748,16.748,0,0,0,13.838,10.359c8.541,1.179,20.235-2.674,27.368-9.274.844-.782.486-.562,1.07-.806l.415.162h0l.172.405-.162.421h0c-8.847,9.274-25.564,14.743-36.514,8.544-12.879-7.334-12.966-30.145-6.513-42.836l.335-.295Z" transform="translate(-17.606 -30.147)"/><path class="a" d="M144.755,196.247v0l.142.384-.145.428h0a17.591,17.591,0,0,1-2.4,2.542h0a17.593,17.593,0,0,1-2.926,1.874h0c-.287.145-.044.031-.672.332-2.234,1.011-2.032.677-2,.965.739,5.016.976,4.5,1.878,10.1.344,2.4.324,1.959.19,2.548l-.355.25h-.007l-.421-.1-.265-.378h0c-.723-2.791-2.383-7.319-3-13.145h0c-.022-.926.631-.978,1.414-1.237a17.135,17.135,0,0,0,2.374-1.015h0a51.889,51.889,0,0,0,5.243-3.465c.169-.131.053-.075.56-.243Z" transform="translate(-24.613 -31.143)"/><path class="a" d="M139.71,178.989h.007l.176.38-.116.452a12.57,12.57,0,0,1-3.042,3.374,24.5,24.5,0,0,1-4.684,2.826,6.73,6.73,0,0,1-2.674.763,1.741,1.741,0,0,1-.963-.059l-.262-.286c0-.009.062-.377.063-.386l.324-.333c.021-.008,1.284-.743,1.336-.771a31.538,31.538,0,0,0,4.359-2.288c1.011-.662,3.566-2.643,4.426-3.4.285-.254.127-.154.643-.383Z" transform="translate(-23.357 -27.876)"/><path class="a" d="M142.16,186.818v0l.179.378-.109.455a14.177,14.177,0,0,1-2.862,3.451,18.071,18.071,0,0,1-4.568,2.9,5.923,5.923,0,0,1-2.773.628,1.737,1.737,0,0,1-.978-.162c-.006-.009-.225-.309-.231-.318l.108-.37.358-.3c.324-.126,1.407-.673,1.657-.774a15.427,15.427,0,0,0,4.225-2.262c.585-.44,3.358-2.792,4.154-3.546l.429-.2Z" transform="translate(-23.862 -29.362)"/><path class="a" d="M133.842,170.452v0l.139.414-.186.417c-.492.288-5.769,6.6-14.417,8.766-4.741,1.194-10.816.823-13.452-3.213a6.7,6.7,0,0,1-.668-1.378c-.032-.095-.016,0,0-.5l.284-.309h.422c.365.315.31.243.361.333.092.027,1.046,2.549,5.744,3.533,7.212,1.442,15.2-3.51,20.941-8.1h0l.437-.141Z" transform="translate(-19.011 -26.246)"/><path class="a" d="M114.022,177.227c-4.81-8.9-5.916-12.8-7.415-15.389,1.224-1.459,2.459-2.887,3.788-4.252,5.493.724,11.021,1.279,16.51,2.072.746,3.935,2.762,7.445,3.809,11.274-2.535,2.593-5.941,4-9.346,5.02a21.333,21.333,0,0,1-7.158,1.224" transform="translate(-19.27 -23.839)"/><path class="a" d="M110.3,156.432c5.8.757,10.38,1.216,15.485,1.927,1.216.169,1.238.139,1.553.4.34.379.213.423.5,1.549.938,3.621,2.5,6.417,3.449,9.788.138.486.2.609.053,1a5.081,5.081,0,0,1-1.105,1.119,16.954,16.954,0,0,1-3.389,2.21,34.839,34.839,0,0,1-10.961,3.115,12.332,12.332,0,0,1-1.945-.011c-.442.039-.184.066-.648-.248-.1-.173-3.043-5.127-5.267-9.863-.788-1.686-1.188-2.933-2.188-4.862a2.641,2.641,0,0,1-.365-.737c-.1-.625.224-.842.66-1.357,1.227-1.452,1.917-2.213,2.743-3.1C109.468,156.73,109.653,156.4,110.3,156.432Zm.187,1.97c-1.66,1.764-2.836,3.187-2.959,3.322.8,1.382,2.113,5.09,6.609,14.644,3.5.025,9.346-2.038,12.047-3.548h0a15.431,15.431,0,0,0,3.266-2.373c0-.554-2.4-5.93-3.366-9.4v-.008c-.081-.324-.1-.416-.182-.75C125.9,160.2,110.529,158.357,110.486,158.4Z" transform="translate(-19.052 -23.619)"/><path class="d" d="M130.226,172.358c-.449-.373-.267-.075-1.586-2.151-.057-.1-.391-.639-.593-1.053-.272-.567-1.028-2.188-1.262-2.771-.792-1.827-.784-1.614.063-2.856.293-.442.551-.794.59-.863a10.327,10.327,0,0,1,1.425-1.369l.433-.19.374.066h.007l.172.338c-.066.584.033.31-.59,1.724a16.716,16.716,0,0,1-1.06,1.659c1.193,2.957,1.395,2.585,2.7,6.633l.011.5-.249.337h-.007Z" transform="translate(-22.987 -24.506)"/><path class="a" d="M205.8,178.142l.235.346c0,.716-.439.643-3.93,1.64,0,.224-2.232.229-14.308,3.874.027.849.149,3.728.149,7.918,0,3.417.112,2.657-.127,3.322l-.388.205h0l-.411-.151-.216-.412c0-.415-.694-4.748-.862-10.1-.051-1.655-.09-1.54.049-1.891.28-.472.045-.343,4.318-1.6,11.048-3.2,11.439-2.741,11.439-2.88.095-.012,2.881-.391,3.624-.391Z" transform="translate(-34.307 -27.714)"/><path class="a" d="M192.744,198.536c5.068.07,4.16.117,9.386.117l.433.162.2.389v.006l-.152.41-.411.208c0,.092-5.186.486-9.7.589-15.92.073-16.612.961-22.068.432-1.1-.107-2.289-.324-2.385-.336l-.388-.226-.134-.4v-.009l.205-.366a1.353,1.353,0,0,1,.891-.155C172.513,199.335,183.1,198.4,192.744,198.536Z" transform="translate(-30.823 -31.602)"/><path class="a" d="M198.323,208.438c.1-2.974.405-5.936.559-8.907-5.37.062-10.737.267-16.1.311a76.2,76.2,0,0,0-8.286.314c.929,4.45,1.989,8.812,3.057,13.22,1.8.288,3.519.988,5.367.945,3.915-.091,8.244-1.724,11.629-3.548a20.041,20.041,0,0,0,3.926-2.269" transform="translate(-32.145 -31.794)"/><path class="a" d="M199.471,198.938h0c.113.3.11.285-.007,1.549-.771,8.222-.882,7.057-.631,7.838-.2.425-.147.379-.361.559a17.208,17.208,0,0,1-3.225,1.964,40.126,40.126,0,0,1-4.5,2.237,28.679,28.679,0,0,1-4.5,1.459,13.364,13.364,0,0,1-7.632-.152c-1.73-.405-1.6-.243-1.982-.6-.186-.248-.063.374-1.6-6.189-.277-1.159-.9-3.835-1.411-6.218-.282-1.317-.413-1.5-.109-2,.328-.387.54-.374,1.049-.429,1.627-.168,2.976-.218,4.619-.249C200.21,198.386,199.037,198.159,199.471,198.938Zm-24.058,1.838c.541,2.654,2.036,8.885,2.691,11.573,2.715.525,3.214,1.092,6.337.729,4.842-.584,8.99-2.878,11.368-3.984a11.064,11.064,0,0,0,1.717-.972c0-3.566.147-5.523.212-7.866C194.424,200.382,177.811,200.562,175.413,200.775Z" transform="translate(-31.925 -31.581)"/><path class="a" d="M81.123,161.021a.575.575,0,0,1,.477.567c.4,38.559.442,36.935,0,37.373h0a.9.9,0,0,1-.579.214c-2.082.009-39.217.081-39.657-.032a.951.951,0,0,1-.486-.405c-.188-.411-.122,2.242-.122-37.147a.925.925,0,0,1,.763-.908C44.731,160.394,81.031,161.013,81.123,161.021Zm-38.515,1.5v34.831c20.421,0-30.682.023,37.519.028.092.047-.075,1.454.317-35.205-21.52.4-20.742.347-37.836.347Z" transform="translate(-6.779 -24.411)"/><path class="a" d="M103.593,236.836c.827.282.267-.021,1.045.426l.179.348v.006l-.2.336-.455.23c-2.283.456-.405.278-4.359.383a2.416,2.416,0,0,1-1.344-.147c-.532-.243-.263-.036-1-.741.7-.729.455-.529.963-.782a2.425,2.425,0,0,1,1.329-.213C102.729,236.605,102.416,236.578,103.593,236.836Z" transform="translate(-17.536 -38.829)"/><path class="a" d="M88.311,252.522a1.922,1.922,0,0,1,.934.115,49.786,49.786,0,0,1,6.359,3.829c1.769,1.2,2.194,1.3,2.075,2.138a.927.927,0,0,1-.335.532c-.277.182-.324.182-.878.253-3.45.449-6.847-.25-10.368-.6-7.225-.7-11.763-2.049-17.634-2.9-1.864-.277-1.9-.317-2.78-.5l-.37-.258-.089-.433c.006-.01.247-.359.254-.369l.4-.081.015-.011a72.744,72.744,0,0,1,9.674-1.3C78.819,252.7,85.356,252.514,88.311,252.522Zm-.324,1.884c-5.341.011-10.847.329-13.738.444-2.849.116-2.6.049-1.557.207,1.864.285,5.791.891,8.151,1.206,0,.092,10.872,1.365,13.144,1.388a53.8,53.8,0,0,0-5.21-3.139c-.235-.121-.1-.107-.791-.105Zm.25-.188.011,0-.015-.012Z" transform="translate(-11.422 -41.841)"/><path class="a" d="M82.935,239.7a45.912,45.912,0,0,1,6.018.324c1.1.109.791.036,1.332.284l.18.389v.006l-.18.389-.433.194c-.389,0-1.783.226-4.826.3-1.824.048-1.1-.13-7.766.117h0a13.219,13.219,0,0,1-5.094-.48l-.378-.257-.126-.381v-.006l.212-.34C73.126,239.768,81.671,239.694,82.935,239.7Z" transform="translate(-12.643 -39.411)"/><path class="a" d="M47.225,248.494c.554.018,1.012.122,2.9.173,2.792.06,3.573-.117,5.191-.049,2.609.121,2.188.081,2.755.3l.212.364v.006l-.162.39-.433.237a25.688,25.688,0,0,1-7.415.643c-3.368-.07-3.848-.329-4.957-.81-.122-.051-.042,0-.447-.34l-.1-.372c.006-.01.224-.3.231-.312l.444-.15C45.544,248.562,47,248.483,47.225,248.494Z" transform="translate(-7.542 -41.079)"/><path class="a" d="M239.776,263.869l.224.405v.006l-.216.412-.523.18h0l-5.333.39-23.284.338-12.171.162L186.8,265.9l-14.824.139-17.481.162-39.068.366-38.141.358-16.32.153-13.209.124-6.027.033-6.524.019-13.111.008-16.145-.023H5.582l-.405-.169L5,266.67v-.006l.168-.405.405-.177h0l.37-.008,16.14-.331L35.19,265.5l6.523-.1,6.031-.081,13.2-.124,16.32-.153,38.138-.357,39.071-.366,17.478-.162,14.824-.139,11.681-.081,12.171-.067,23.284-.1,5.333-.074h0Z" transform="translate(0 -43.962)"/><path class="d" d="M18.236,237.225c5.74.109,6.078.115,8.321.582a1.6,1.6,0,0,1,.768.309l.162.382v.006l-.208.36a1.575,1.575,0,0,1-.8.218,24.232,24.232,0,0,1-4.642.112,38.2,38.2,0,0,1-4.391-.162c-1.314-.3-1.22-.31-1.645-.567l-.162-.339v-.006l.176-.332.412-.231a7.617,7.617,0,0,1,2.006-.332Z" transform="translate(-2.018 -38.942)"/><path class="d" d="M33.241,249.336c1.864.138,1.378.022,2.026.284l.205.378V250l-.176.392-.44.216h0c-4.572.635-3.541.447-12.053.7a15.726,15.726,0,0,1-4.024-.227h0l-.415-.2-.184-.352v-.006l.155-.365.4-.231c.324-.049.36-.105,1.5-.305a12.827,12.827,0,0,1,2.512-.2C31.313,249.18,30.283,249.2,33.241,249.336Z" transform="translate(-2.5 -41.22)"/><path class="d" d="M35.917,260.8h0c.486.346.366.2.554.637h0c-.81.648-.516.486-1.134.648a14.262,14.262,0,0,1-3.472.214h0a1.151,1.151,0,0,1-.536-.057c-.666-.272-.6-.281-1.189-.886.625-.609.518-.575,1.175-.87.268-.086.1-.06.831-.081C34.433,260.361,34.592,260.263,35.917,260.8Z" transform="translate(-4.768 -43.332)"/><path class="a" d="M234.29,194.594c.764.5.551.268,1.153,3.4,1.019,5.484,1.611,7.9,2.094,10.979.6,3.827.637,3.435.063,3.883h-.007l-.421-.081-.288-.37c0-.093-.015.032-.729-2.3-1.259-4.351-1.088-4.282-2.665-12.282-.405-2.2-.142-1.481-1.007-2.383-.172-.173-.526-.524-.609-.6h0a4.66,4.66,0,0,0-.929-.744l-.295-.345-.022-.405v-.006l.295-.281.451-.036a10,10,0,0,1,2.916,1.581Z" transform="translate(-42.791 -30.557)"/><path class="d" d="M120.914,163.923a11.48,11.48,0,0,1,2.908.5c.913.319.5.091,1.1.482l.146.344v.006l-.182.324-.411.206a6.645,6.645,0,0,1-2.374.156c-1.251-.143-5.8-.754-7.035-1.028-2.232-.486-1.728-.313-2.291-.628l-.153-.379v-.006l.194-.361a1.711,1.711,0,0,1,.972-.223C116.307,163.148,116.91,163.373,120.914,163.923Z" transform="translate(-20.411 -24.914)"/><path class="a" d="M160.094,205.6l.358.171.2.4c.423,3.3.307.7.378,11.514a62.029,62.029,0,0,1-.318,6.924l-.19.441-.384.185h0l-.384-.184c-.2-.47-.2-.149-.388-2.746-.18-2.525-.22-2.25-.22-12.1a21.257,21.257,0,0,1,.377-4.044l.209-.4.362-.162Z" transform="translate(-29.234 -32.946)"/><circle class="e" cx="4.479" cy="4.479" r="4.479" transform="translate(50.596 132.649)"/><path class="a" d="M66.054,155.49a5.1,5.1,0,0,1,4.147,7.832,5.421,5.421,0,0,1-9.2.221h0a5.186,5.186,0,0,1,3.251-7.941,8.094,8.094,0,0,1,1.8-.112Zm-.519,1.186a3.8,3.8,0,0,0-3.557,3.525c0,4.208,4.776,5.19,6.645,2.087a3.484,3.484,0,0,0,.272-.629,3.975,3.975,0,0,0-3.359-4.993Zm.045-1.169H65.6Z" transform="translate(-10.457 -23.439)"/><path class="a" d="M81.7,199.279c3.843.137,5.48-.113,8.9.147,2.018.157,1.613.1,2.1.324l.171.373v.006l-.162.374c-.517.254-.113.162-2.079.378a62.97,62.97,0,0,1-8.341.268c-1.176,6.343-2.394,10.859-5.971,16.426-.194.3-.081.19-.523.507l-.425-.048h0l-.259-.346c.058-.54.017-.388.175-.7a48.193,48.193,0,0,0,2.116-4.923c3.7-10.076,2.63-11.852,3.561-12.624a1.034,1.034,0,0,1,.736-.161Z" transform="translate(-13.297 -31.743)"/><path class="a" d="M76.746,229.266a8.433,8.433,0,0,1,4.658,1.442,8.279,8.279,0,0,1,2.735,3.055c1.233,2.5.967,3.288.967,11.039-.016,4.96.027,4.514-.13,4.862a.909.909,0,0,1-1.063.425c-.361-.148-.2-.126-.426-.129-3.39-.029-10.094.123-16.559.572,3.873.71,6.6,1.221,9.834,1.717,7.212,1.081,7.924.6,8,1.533h-.011c.081,6.534.1,5.888.045,6.127a.655.655,0,0,1-.28.352c-.092.045,1.459.353-44.438.353a.927.927,0,0,1-.914-.766c-.011-.162-.034-22.159.015-22.847a8.428,8.428,0,0,1,7.348-7.673C47.384,229.232,76.653,229.265,76.746,229.266Zm-5.158,1.853c-24.862,0-24.686-.243-26.5.486a6.573,6.573,0,0,0-3.728,3.94c-.5,1.283-.358,1.07-.358,23.22,23.377,0,19.574-.045,42.508.255l.011.014v-4.742c-5.088-.584-4.077-.2-16.029-2.181-2.917-.478-5.931-.693-6.915-.983a.774.774,0,0,1,.243-1.493,149.873,149.873,0,0,1,22.385-1.484c.1,0,.041.789.041-10.591a6.588,6.588,0,0,0-4.959-6.24C77.23,231.041,76.609,231.119,71.588,231.119Zm11.727,18.662.007,0-.011-.011Z" transform="translate(-6.476 -37.432)"/><path class="d" d="M190.035,60.308a5.505,5.505,0,0,1,1.672.335c.356.13.22.06.627.387l.1.368V61.4l-.224.306c-.7.25-.29.094-1.209.243h0a9.443,9.443,0,0,0-4,1.173h0a9.2,9.2,0,0,0-2.041,1.6h0a17.878,17.878,0,0,0-2.571,3.188l-.351.3-.41.007h-.008l-.272-.31a1.647,1.647,0,0,1,.179-1.048,9.141,9.141,0,0,1,2.113-3.432h0a11.5,11.5,0,0,1,2.437-1.9h0a8.533,8.533,0,0,1,3.953-1.216Z" transform="translate(-33.443 -5.389)"/><path class="d" d="M180.043,76.711h0a2.183,2.183,0,0,1-.149-.284,7.516,7.516,0,0,1-.262-1.993,1.279,1.279,0,0,1,.156-.276h0a2.032,2.032,0,0,1,.186-.216c1.384.076,1.053,0,1.306.253h0a1.181,1.181,0,0,0,.1.13c.019.032.032.051.053.081h0a11.616,11.616,0,0,0,.25,1.57,2.923,2.923,0,0,1-.481,1.686C180.416,77.191,180.48,77.29,180.043,76.711Z" transform="translate(-33.12 -7.975)"/><path class="d" d="M178.753,155.695l.306.294c0,.01-.015.421-.015.43l-.314.328h0c-1.074.522-2.789,1.416-3.706,1.912-2.955,1.669-3.411,1.633-7.639,4.255-3.536,2.188-4.6,3.28-7.86,5.164h0l-.437.1c-.012-.006-.354-.176-.365-.183l-.1-.39.186-.405c0-.094,1.8-1.777,2.164-2.1a67.242,67.242,0,0,1,13.26-7.946c3.647-1.478,4.064-1.389,4.064-1.481Z" transform="translate(-29.135 -23.476)"/></g></svg>