<svg xmlns="http://www.w3.org/2000/svg" xmlns:xlink="http://www.w3.org/1999/xlink" width="211" height="171.786" viewBox="0 0 211 171.786"><defs><style>.a,.k{fill:none;}.b{fill:#a4d2fc;}.c{fill:#465cff;}.d,.o{fill:#fff;}.e{fill:#ffeb7d;}.f{clip-path:url(#a);}.g,.n{fill:#f9c126;}.h,.i{fill:#ffc3a9;}.h,.i,.k,.l{stroke:#e89589;stroke-width:1.391px;}.h,.k,.l{stroke-linecap:round;stroke-linejoin:round;}.i,.n{stroke-miterlimit:10;}.j{fill:#621cd1;}.l{fill:#e28584;}.m{fill:#ff5c76;}.n{stroke:#f9c126;stroke-width:0.348px;}.o{opacity:0.44;isolation:isolate;}</style><clipPath id="a"><path class="a" d="M157.648,178.519c-8.577-11.787-28.437-13.586-34.281-13.864V164.6s-.3,0-.81.025c-.531-.025-.81-.025-.81-.025v.051c-5.844.278-25.7,2.074-34.281,13.864-10.12,13.915-13.409,29.854-13.409,37.191s3.516,14.168,18.949,14.421c9.791.152,21.96.127,29.55.076,7.615.05,19.759.1,29.55-.076,15.458-.252,18.949-7.084,18.949-14.421S167.768,192.434,157.648,178.519Z" transform="translate(-74.058 -164.604)"/></clipPath></defs><g transform="translate(-5 -31.948)"><path class="b" d="M211.193,264.452H9.807A4.8,4.8,0,0,1,5,259.645H5a4.8,4.8,0,0,1,4.807-4.807H211.193A4.8,4.8,0,0,1,216,259.645h0a4.8,4.8,0,0,1-4.807,4.807Z" transform="translate(0 -60.718)"/><path class="b" d="M257.924,80.629h-64.21a4.075,4.075,0,0,0-4.074,4.074V140.11a1.571,1.571,0,0,0,2.838.936l6.375-8.652a4.074,4.074,0,0,1,3.289-1.67h55.811a4.07,4.07,0,0,0,4.074-4.074V84.7a4.109,4.109,0,0,0-4.1-4.074Z" transform="translate(-50.298 -13.261)"/><path class="c" d="M237.343,102.317h-31.3a2.149,2.149,0,0,1-2.151-2.151h0a2.149,2.149,0,0,1,2.151-2.15h31.3a2.148,2.148,0,0,1,2.15,2.15h0A2.165,2.165,0,0,1,237.343,102.317Z" transform="translate(-54.182 -17.998)"/><path class="d" d="M259.707,134.307H223.781a2.148,2.148,0,0,1-2.15-2.15h0a2.149,2.149,0,0,1,2.15-2.151h35.926a2.149,2.149,0,0,1,2.15,2.151h0a2.148,2.148,0,0,1-2.15,2.15Z" transform="translate(-59.013 -26.712)"/><path class="c" d="M245.388,112.053H206.048A2.149,2.149,0,0,1,203.9,109.9h0a2.149,2.149,0,0,1,2.151-2.15h39.341a2.149,2.149,0,0,1,2.151,2.15h0a2.149,2.149,0,0,1-2.151,2.151Z" transform="translate(-54.182 -20.65)"/><path class="e" d="M157.648,178.519c-8.577-11.787-28.437-13.586-34.281-13.864V164.6s-.3,0-.81.025c-.531-.025-.81-.025-.81-.025v.051c-5.844.278-25.7,2.074-34.281,13.864-10.12,13.915-13.409,29.854-13.409,37.191s3.516,14.168,18.949,14.421c9.791.152,21.96.127,29.55.076,7.615.05,19.759.1,29.55-.076,15.458-.252,18.949-7.084,18.949-14.421S167.768,192.434,157.648,178.519Z" transform="translate(-18.812 -36.137)"/><g class="f" transform="translate(55.246 128.467)"><path class="g" d="M99.208,208.416c-.455-.05-.582.405-.509.759" transform="translate(-80.765 -176.538)"/><path class="g" d="M98.86,206.975a1.444,1.444,0,0,0-.455-.073c.1.025.2.025.3.051a1.738,1.738,0,0,0-2.1.708,1.828,1.828,0,0,0-.177,1.315,1.65,1.65,0,0,0,.784,1.012,1.828,1.828,0,0,0,1.315.178,1.655,1.655,0,0,0,1.012-.784c.05-.127.127-.279.177-.405a1.246,1.246,0,0,0,.025-.682,1.171,1.171,0,0,0-.2-.633,2.928,2.928,0,0,0-.354-.43l-.228,1.746a.09.09,0,0,0,.051-.025c-.076.025-.178.073-.253.1a.151.151,0,0,1,.1-.025,1.032,1.032,0,0,0,.759-1.012,1.062,1.062,0,0,0-.151-.531,1,1,0,0,0-.608-.509Z" transform="translate(-80.139 -176.109)"/><path class="g" d="M111.732,216.62a1.374,1.374,0,0,0,1.012-.43,1.528,1.528,0,0,0,.43-1.012,1.376,1.376,0,0,0-.43-1.011,1.528,1.528,0,0,0-1.012-.431,1.377,1.377,0,0,0-1.012.431,1.528,1.528,0,0,0-.43,1.011,1.376,1.376,0,0,0,.43,1.012,1.528,1.528,0,0,0,1.012.43Z" transform="translate(-83.928 -177.988)"/><path class="g" d="M111.846,204.3a1.171,1.171,0,0,0,.81-.329,1.11,1.11,0,0,0,.329-.81,1.171,1.171,0,0,0-.329-.81,1.22,1.22,0,0,0-.81-.329,1.173,1.173,0,0,0-.81.329,1.11,1.11,0,0,0-.329.81,1.176,1.176,0,0,0,.329.81,1.22,1.22,0,0,0,.81.329Z" transform="translate(-84.042 -174.796)"/><path class="g" d="M102.789,189.64c-.076.051-.127.1-.2.152-.025-.051-.025-.1-.051-.152" transform="translate(-81.816 -171.424)"/><path class="g" d="M102.742,188.394h0a1.091,1.091,0,0,0-1.037-.073,1.164,1.164,0,0,0-.38.228,1.042,1.042,0,0,0-.3.506v.025c-.025.1-.025.2-.051.3.025.1.025.2.051.3a1.284,1.284,0,0,0,.3.509,1.214,1.214,0,0,0,1.29.253,1.2,1.2,0,0,0,.709-.911,1.264,1.264,0,0,0-.073-.608,1.683,1.683,0,0,0-.509-.531Z" transform="translate(-81.389 -171.038)"/><path class="g" d="M115.56,189.988c-.073.025-.126.025-.2.051a1.944,1.944,0,0,1-.3.708" transform="translate(-85.226 -171.519)"/><path class="g" d="M114.287,188a1.068,1.068,0,0,1-.178.126,1.8,1.8,0,0,0-.632.734,1.468,1.468,0,0,0-.073.987v.05a1.528,1.528,0,0,0,1.237,1.091,1.65,1.65,0,0,0,.784-.1,1.4,1.4,0,0,0,.709-.608c0-.025.025-.025.025-.051-.582.228-1.139.455-1.721.709.051,0,.127.025.178.025a1.656,1.656,0,0,0,.86,0,1.542,1.542,0,0,0,1.139-1.746,1.609,1.609,0,0,0-.759-1.164,1.462,1.462,0,0,0-1.569-.05Z" transform="translate(-84.762 -170.923)"/><path class="g" d="M112.177,178.861a.592.592,0,0,0-.253.509" transform="translate(-84.373 -168.488)"/><path class="g" d="M111.8,179.653a1.289,1.289,0,0,0,.885-.38,1.339,1.339,0,0,0,.38-.885,1.289,1.289,0,0,0-.38-.885,1.339,1.339,0,0,0-.885-.38,1.289,1.289,0,0,0-.885.38,1.338,1.338,0,0,0-.379.885,1.285,1.285,0,0,0,.379.885,1.242,1.242,0,0,0,.885.38Z" transform="translate(-83.995 -168.014)"/><path class="g" d="M127.983,185.247a.759.759,0,1,0-.759-.759A.759.759,0,0,0,127.983,185.247Z" transform="translate(-88.541 -169.814)"/><path class="g" d="M86.541,197.986a1,1,0,0,0,.509.759" transform="translate(-77.459 -173.698)"/><path class="g" d="M85.84,199.157a1.837,1.837,0,0,0,1.315-.557,2,2,0,0,0,.557-1.315,1.838,1.838,0,0,0-.557-1.316,1.947,1.947,0,0,0-1.315-.557,1.839,1.839,0,0,0-1.315.557,2,2,0,0,0-.557,1.316,1.834,1.834,0,0,0,.557,1.315,1.944,1.944,0,0,0,1.315.557Z" transform="translate(-76.758 -172.997)"/><path class="g" d="M84.319,217.643a1.6,1.6,0,0,1-.178-.051.448.448,0,0,0-.557.4.424.424,0,0,0,.557.405c.051-.025.127-.025.178-.051a.369.369,0,0,0,0-.708Z" transform="translate(-76.653 -179.035)"/><path class="g" d="M93.358,230.846a1.66,1.66,0,0,0,.86-.2,1.907,1.907,0,0,0,.709-.455,1.434,1.434,0,0,0,.455-.708,1.723,1.723,0,0,0,.2-.861,2.22,2.22,0,0,0-.655-1.568,2.314,2.314,0,0,0-1.569-.658,1.662,1.662,0,0,0-.861.2,1.891,1.891,0,0,0-.708.455,1.43,1.43,0,0,0-.455.708,1.721,1.721,0,0,0-.2.86,2.217,2.217,0,0,0,.655,1.569,2.263,2.263,0,0,0,1.569.655Z" transform="translate(-78.71 -181.436)"/><path class="g" d="M77.507,230.2a.924.924,0,0,0,.911-.911.941.941,0,0,0-.911-.91.923.923,0,0,0-.911.91A.941.941,0,0,0,77.507,230.2Z" transform="translate(-74.749 -181.977)"/><path class="g" d="M92.84,218.024a.728.728,0,0,0-.073.4.971.971,0,0,0,.228.557.853.853,0,0,0,.557.228.784.784,0,0,0,.557-.228.852.852,0,0,0,.228-.557.728.728,0,0,0-.073-.4,1.01,1.01,0,0,0-.253-.38.688.688,0,0,0-.43-.151.819.819,0,0,0-.354.1.878.878,0,0,0-.38.43Z" transform="translate(-79.154 -179.012)"/><path class="g" d="M125.992,241.356a.589.589,0,0,0-.506-.253" transform="translate(-88.068 -185.443)"/><path class="g" d="M124.832,242.231a1.828,1.828,0,0,0,1.237-.506,1.1,1.1,0,0,0,.354-.557,1.507,1.507,0,0,0,.152-.683,1.83,1.83,0,0,0-.509-1.237,1.761,1.761,0,0,0-1.237-.506,1.829,1.829,0,0,0-1.237.506,1.109,1.109,0,0,0-.354.557,1.507,1.507,0,0,0-.152.683,1.728,1.728,0,0,0,1.746,1.746Z" transform="translate(-87.414 -184.8)"/><path class="g" d="M146.605,224.7c-.025-.05-.025-.1-.051-.151-.073.05-.127.1-.2.151" transform="translate(-93.752 -180.935)"/><path class="g" d="M145.878,225.7a1.819,1.819,0,0,0,1.214-.509,1.7,1.7,0,0,0,.506-1.214,1.764,1.764,0,0,0-.506-1.214,1.724,1.724,0,0,0-2.938,1.214,1.767,1.767,0,0,0,.509,1.214,1.868,1.868,0,0,0,1.214.509Z" transform="translate(-93.153 -180.308)"/><path class="g" d="M147.645,210.5l-.253.252" transform="translate(-94.035 -177.107)"/><path class="g" d="M147.137,209.888c-.05.051-.127.073-.177.127h.557a.69.69,0,0,0-.861.1.68.68,0,1,0,.962.962.691.691,0,0,0,.1-.861v.557c.05-.05.073-.126.127-.177a.522.522,0,0,0-.709-.709Z" transform="translate(-93.78 -176.923)"/><path class="g" d="M163.935,204.3a1.113,1.113,0,0,1-.073-.1,1.041,1.041,0,0,0-1.771,0c-.025.025-.05.073-.073.1a1.112,1.112,0,1,0,1.923,0Z" transform="translate(-97.979 -175.256)"/><path class="g" d="M162.336,187.673a1.837,1.837,0,0,0,1.315-.557,1.537,1.537,0,0,0,.379-.608,1.2,1.2,0,0,0,.152-.733,1.836,1.836,0,0,0-.557-1.316,1.947,1.947,0,0,0-1.315-.557,1.836,1.836,0,0,0-1.315.557,1.528,1.528,0,0,0-.38.607,1.211,1.211,0,0,0-.152.734,1.9,1.9,0,0,0,1.873,1.872Z" transform="translate(-97.594 -169.861)"/><path class="g" d="M179.983,187.9a.589.589,0,0,1-.253.509" transform="translate(-102.845 -170.95)"/><path class="g" d="M177.784,186.875h0a1.971,1.971,0,0,1,.152-.38c-.025.025-.025.051-.051.1.329-.253.683-.531,1.012-.784-.025,0-.025,0-.05.025a1.2,1.2,0,0,0-.608.329.817.817,0,0,0-.329.329,1.769,1.769,0,0,0-.329.608c-.025.151-.05.329-.073.48.025.152.05.329.073.481a1.2,1.2,0,0,0,.329.607.821.821,0,0,0,.329.329,1.764,1.764,0,0,0,.608.329,2.043,2.043,0,0,0,.961,0,1.2,1.2,0,0,0,.608-.329.826.826,0,0,0,.329-.329,1.778,1.778,0,0,0,.329-.607c.025-.152.05-.329.073-.481-.025-.151-.051-.329-.073-.48a1.652,1.652,0,0,0-.455-.784l-.025-.025c.152.253.3.506.43.759a1.083,1.083,0,0,0-.025-.127c-.05-.127-.1-.253-.177-.4a1.074,1.074,0,0,0-.43-.455.717.717,0,0,0-.354-.2,1.371,1.371,0,0,0-.632-.152,1.868,1.868,0,0,0-.835.228,1.074,1.074,0,0,0-.455.43.728.728,0,0,0-.329.509Z" transform="translate(-102.239 -170.354)"/><path class="g" d="M180.331,203.549c-.073.025-.127.025-.2.051-.025.073-.025.127-.05.2" transform="translate(-102.939 -175.213)"/><path class="g" d="M180.085,202.715h-.2a.61.61,0,0,0-.557.329c-.025.025-.025.073-.05.1a1.659,1.659,0,0,0-.1.379.677.677,0,0,0,.582.655.662.662,0,0,0,.733-.48.743.743,0,0,0,.051-.329c-.1.177-.2.379-.329.557.05-.025.126-.051.177-.073a.612.612,0,0,0,.278-.682.622.622,0,0,0-.582-.455Z" transform="translate(-102.693 -174.986)"/><path class="g" d="M170.25,172.106h0a1.187,1.187,0,0,0-.3.509,1.135,1.135,0,0,0,.051.708,1.047,1.047,0,0,0,.987.658,1.164,1.164,0,0,0,.936-.532,1.11,1.11,0,0,0-.177-1.315l-.025-.025a1.039,1.039,0,0,0-1.468,0Z" transform="translate(-100.17 -166.566)"/><path class="g" d="M150.762,177.435c-.278.025-.354.127-.228.279a7.375,7.375,0,0,0,.734-.127" transform="translate(-94.875 -168.099)"/><path class="g" d="M150.495,175.46h-.051c.2.126.43.252.633.379l-.025-.025a1.976,1.976,0,0,0-.759-.455,1.856,1.856,0,0,0-.911,0,1.47,1.47,0,0,0-.759.455,1.964,1.964,0,0,0-.455.76,2.152,2.152,0,0,0,0,1.062c.073.152.127.3.2.455a1.4,1.4,0,0,0,.481.531,1.762,1.762,0,0,0,1.164.4c.228-.025.43-.05.633-.073.151-.073.3-.127.455-.2a1.4,1.4,0,0,0,.532-.481.928.928,0,0,0,.252-.43,1.243,1.243,0,0,0,.152-.733,1.819,1.819,0,0,0-.253-.962l-.3-.379a1.6,1.6,0,0,0-.608-.405,1.047,1.047,0,0,0-.48-.126,1.542,1.542,0,0,0-.759.025.189.189,0,0,0-.1.025c.177-.025.329-.05.506-.073h-.051c-.177.025-.329.05-.506.073a1.4,1.4,0,0,0-.655.354.946.946,0,0,0-.354.354,1.516,1.516,0,0,0-.354.655h0c.734-.405,1.468-.835,2.2-1.237h-.05c.152.051.278.127.43.177h-.025l.633.633a.025.025,0,0,0-.025-.025q-.266.987-.531,1.973c.025,0,.025,0,.05-.025a2.661,2.661,0,0,0,.279-.228,2.579,2.579,0,0,1,.228-.278,1.644,1.644,0,0,0,.177-.911,1.361,1.361,0,0,0-.278-.683,1.013,1.013,0,0,0-.709-.582Z" transform="translate(-94.228 -167.49)"/><path class="g" d="M143.622,195.877a1.1,1.1,0,0,0,.48.633.922.922,0,0,0,1.012,0,1.19,1.19,0,0,0,.481-.633,1.011,1.011,0,0,0-.961-1.265.99.99,0,0,0-1.012,1.265Z" transform="translate(-92.997 -172.778)"/><path class="g" d="M127.134,205.288a.38.38,0,0,0-.228.455c.076.025.152.025.228.05" transform="translate(-88.451 -175.687)"/><path class="g" d="M126.462,204.53c-.025.025-.073.025-.1.05.1-.025.228-.05.329-.073a.86.86,0,0,0-.607.127,1.019,1.019,0,0,0-.38.43.777.777,0,0,0-.051.48.912.912,0,0,0,.784.784.927.927,0,0,0,.911-.43.942.942,0,0,0,.127-.455,1.04,1.04,0,0,0-.278-.655v-.025c.05.05.1.126.151.177-.025-.025-.05-.073-.073-.1-.025.253-.073.531-.1.784l.073-.073a.612.612,0,0,0,.178-.455.623.623,0,0,0-.127-.38.639.639,0,0,0-.835-.177Z" transform="translate(-88.108 -175.46)"/><path class="g" d="M131.735,194.413a.32.32,0,0,1-.025.152.52.52,0,0,1,.531-.4" transform="translate(-89.763 -172.656)"/><path class="g" d="M130.919,196.024a2.017,2.017,0,0,0,.86-.178,1.985,1.985,0,0,0,1.164-1.164,1.647,1.647,0,0,0,.178-.861,2.162,2.162,0,0,0-2.2-2.2,2.018,2.018,0,0,0-.861.178,1.985,1.985,0,0,0-1.164,1.164,1.652,1.652,0,0,0-.178.86,2.242,2.242,0,0,0,.633,1.569,2.462,2.462,0,0,0,1.569.633Z" transform="translate(-88.947 -171.964)"/><path class="g" d="M128.615,171.559c.025.073.025.127.051.2.073.025.127.025.2.05" transform="translate(-88.92 -166.499)"/><path class="g" d="M127.423,171.458a.59.59,0,0,1,.05.2.915.915,0,0,0,1.091.632.873.873,0,0,0,.531-.4,1.06,1.06,0,0,0,.1-.683c0-.073-.025-.127-.025-.2a.852.852,0,0,0-.4-.531,1.085,1.085,0,0,0-.683-.1.873.873,0,0,0-.655,1.091Z" transform="translate(-88.588 -166.17)"/><path class="g" d="M169.71,234.56A.728.728,0,0,0,169,234c-.025-.073-.025-.127-.05-.2" transform="translate(-99.908 -183.454)"/><path class="g" d="M170.968,232.437a3.133,3.133,0,0,0-.784-1.341c-.177-.152-.38-.3-.557-.43a2.165,2.165,0,0,0-1.038-.329,1.2,1.2,0,0,0-.733,0,2.165,2.165,0,0,0-1.038.329,1.036,1.036,0,0,0-.329.253,2.256,2.256,0,0,0-.708.759,1.835,1.835,0,0,0-.329,1.012,1.124,1.124,0,0,0,0,.709,1.943,1.943,0,0,0,.05.38c.1.227.178.43.279.655.151.2.3.4.48.607a2.662,2.662,0,0,0,1.237.709,2.983,2.983,0,0,0,1.493,0,4.325,4.325,0,0,0,.784-.329c.177-.152.354-.279.531-.43a2.11,2.11,0,0,0,.557-.861,1.251,1.251,0,0,0,.177-.683,2.341,2.341,0,0,0-.073-1.011Z" transform="translate(-98.94 -182.495)"/><path class="g" d="M187.4,228.105a.873.873,0,1,0-.873-.873.873.873,0,0,0,.873.873Z" transform="translate(-104.696 -181.427)"/><path class="g" d="M202.144,225.35a.5.5,0,0,1,.152-.279c-.354-.05-.481.279-.655.531" transform="translate(-108.813 -181.075)"/><path class="g" d="M200.213,221.9a3.011,3.011,0,0,0-.936.936c-.073.2-.177.4-.253.607a2.118,2.118,0,0,0-.1.683c.228-.557.481-1.139.709-1.7a2.941,2.941,0,0,0-.632,1.091,2.478,2.478,0,0,0,0,1.29,2.64,2.64,0,0,0,1.091,1.417,2.578,2.578,0,0,0,.607.253l-1.695-1.7a2.493,2.493,0,0,0,.683,1.164c.177.127.354.278.509.4.2.073.4.177.608.253a6.3,6.3,0,0,1,.682.1,6.5,6.5,0,0,0,.683-.1c.2-.073.405-.178.608-.253.177-.127.354-.278.506-.4.127-.178.279-.354.405-.509a2.151,2.151,0,0,0,.3-.961,1.569,1.569,0,0,0,0-.683,1.225,1.225,0,0,0-.178-.655,1.128,1.128,0,0,0-.329-.557,1.3,1.3,0,0,0-.455-.456,1.258,1.258,0,0,0-.557-.329,1.169,1.169,0,0,0-.655-.177,1.547,1.547,0,0,0-.683,0,1.892,1.892,0,0,0-.911.278Z" transform="translate(-108.07 -180.126)"/><path class="g" d="M190.857,212.242c.025.076.025.127.051.2.073.025.127.025.2.051" transform="translate(-105.876 -177.581)"/><path class="g" d="M190.069,211.487l.073-.073a.873.873,0,0,0-.3,1.19c.025.025.05.073.073.1a1.037,1.037,0,0,0,.987.48.946.946,0,0,0,.81-.708,1.041,1.041,0,0,0-.253-.962.993.993,0,0,0-1.189-.151.2.2,0,0,1-.1.05c.151-.05.3-.073.43-.127h-.051c.127.025.228.073.354.1h-.025a.655.655,0,0,0-.43-.073.534.534,0,0,0-.379.178Z" transform="translate(-105.565 -177.306)"/><path class="g" d="M193.451,196.835a2.344,2.344,0,0,0,.733-.05c-.05-.354-.936-.2-1.237-.2" transform="translate(-106.445 -173.307)"/><path class="g" d="M191.286,196.487c.177.911,1.038,1.315,1.8,1.594a2.138,2.138,0,0,0,1.67-.228,2.437,2.437,0,0,0,1.012-1.29,2.261,2.261,0,0,0-.557-2.226,2.592,2.592,0,0,0-1.869-.737,2.429,2.429,0,0,0-1.265.329,2.11,2.11,0,0,0,0,3.644,2.971,2.971,0,0,0,.784.3c-.178-.073-.354-.152-.509-.228.051.025.073.05.1.05-.151-.126-.3-.228-.455-.354l.05.05c-.127-.151-.228-.3-.354-.455.073.1.1.152.2.279a2.435,2.435,0,0,0,.655.582c-.151-.126-.3-.227-.455-.354l.025.025v-3.086a.191.191,0,0,1-.1.1c.152-.1.279-.228.43-.329a2.921,2.921,0,0,0-.655.481,2.02,2.02,0,0,0-.509,1.847Z" transform="translate(-105.924 -172.503)"/><path class="g" d="M166.786,218.866a1.17,1.17,0,0,0,.81-.329,1.107,1.107,0,0,0,.329-.81,1.17,1.17,0,0,0-.329-.809,1.219,1.219,0,0,0-.81-.329,1.17,1.17,0,0,0-.809.329,1.107,1.107,0,0,0-.33.809,1.171,1.171,0,0,0,.33.81A1.217,1.217,0,0,0,166.786,218.866Z" transform="translate(-99.008 -178.765)"/><path class="g" d="M186.676,250.611a1.839,1.839,0,0,0,1.315-.557,1.536,1.536,0,0,0,.38-.608,1.205,1.205,0,0,0,.151-.733,1.836,1.836,0,0,0-.557-1.316,1.943,1.943,0,0,0-1.315-.556,1.839,1.839,0,0,0-1.315.556,1.541,1.541,0,0,0-.379.608,1.2,1.2,0,0,0-.152.733A1.9,1.9,0,0,0,186.676,250.611Z" transform="translate(-104.225 -187.007)"/><path class="g" d="M197.116,236.93c.073.025.127.025.2.051.025.073.025.127.051.2" transform="translate(-107.581 -184.307)"/><path class="g" d="M197.182,237.162c.025,0,.025-.025.051-.025h0l-.3-.073c.05.051.1.073.126.127a.207.207,0,0,0,.329-.073c.025-.051.051-.127.076-.178a.277.277,0,0,0-.076-.3c-.05-.051-.073-.1-.126-.127a.432.432,0,1,0-.557.658.533.533,0,0,0,.48,0Z" transform="translate(-107.419 -184.159)"/><path class="g" d="M200.844,248.139a1.108,1.108,0,0,1-.073-.1,2.552,2.552,0,0,0-4.4,0,1.156,1.156,0,0,0-.073.1,2.72,2.72,0,0,0-.354,1.341,2.8,2.8,0,0,0,.354,1.341,2.628,2.628,0,0,0,4.554,0,2.724,2.724,0,0,0,.354-1.341,2.793,2.793,0,0,0-.354-1.341Z" transform="translate(-107.261 -186.989)"/><path class="g" d="M205.553,239.1a.683.683,0,1,0-.683-.683A.683.683,0,0,0,205.553,239.1Z" transform="translate(-109.693 -184.525)"/><path class="g" d="M178.495,218.152a.455.455,0,0,0-.509.509" transform="translate(-102.368 -179.19)"/><path class="g" d="M177.42,215.6a2.977,2.977,0,0,0-.608.228l-.38.3a1.542,1.542,0,0,0-.379.608,1.05,1.05,0,0,0-.127.481,1.534,1.534,0,0,0,.025.759,2.328,2.328,0,0,0,.48.835,1.544,1.544,0,0,0,.608.38,1.2,1.2,0,0,0,.733.151h.1c-.178-.025-.33-.05-.509-.073a.092.092,0,0,1,.073.025,1.9,1.9,0,0,0,1.847-.481,1.939,1.939,0,0,0,.557-1.341,1.9,1.9,0,0,0-.557-1.341,1.853,1.853,0,0,0-.835-.48,1.825,1.825,0,0,0-1.037-.051Z" transform="translate(-101.799 -178.482)"/><path class="g" d="M167.117,250.4l-.252-.253" transform="translate(-99.34 -187.906)"/><path class="g" d="M167.643,248.848l-.152-.152a1.543,1.543,0,0,0-1.037-.43,1.478,1.478,0,0,0-1.038.43,1.433,1.433,0,0,0-.43,1.038,1.593,1.593,0,0,0,.43,1.038l.152.151a1.54,1.54,0,0,0,1.037.43,1.475,1.475,0,0,0,1.038-.43,1.43,1.43,0,0,0,.43-1.037,1.6,1.6,0,0,0-.43-1.038Z" transform="translate(-98.828 -187.395)"/><path class="g" d="M81.168,247.048a2.391,2.391,0,0,0,1.62-.655,2.532,2.532,0,0,0,.683-1.619,2.29,2.29,0,0,0-3.9-1.621,2.522,2.522,0,0,0-.683,1.62,2.246,2.246,0,0,0,2.277,2.277Z" transform="translate(-75.374 -185.823)"/><path class="g" d="M97.59,254.333A1.17,1.17,0,0,0,98.4,254a1.107,1.107,0,0,0,.329-.81,1.169,1.169,0,0,0-.329-.81,1.218,1.218,0,0,0-.809-.329,1.17,1.17,0,0,0-.81.329,1.11,1.11,0,0,0-.329.81,1.171,1.171,0,0,0,.329.81A1.219,1.219,0,0,0,97.59,254.333Z" transform="translate(-80.158 -188.427)"/><path class="g" d="M102.126,239.185c0-.025.025-.076.025-.1a1.131,1.131,0,0,0-.3-1.139.025.025,0,0,1-.025-.025,1.22,1.22,0,0,0-.81-.329c-.1.025-.2.025-.3.051a1.048,1.048,0,0,0-.509.3.025.025,0,0,0-.025.025,1.129,1.129,0,0,0-.3,1.138c0,.025.025.076.025.1a1.139,1.139,0,0,0,1.091.835,1.206,1.206,0,0,0,1.139-.86Z" transform="translate(-81.077 -184.487)"/><path class="g" d="M115.191,223.691c.025.025.025.051.051.073a2.541,2.541,0,0,0,.86.861,2.406,2.406,0,0,0,2.429,0,2.546,2.546,0,0,0,.861-.861c.025-.025.025-.05.05-.073a2.333,2.333,0,0,0,.329-1.237,2.4,2.4,0,0,0-.329-1.237,2.467,2.467,0,0,0-2.1-1.217,2.412,2.412,0,0,0-2.1,1.214,2.334,2.334,0,0,0-.329,1.237,1.954,1.954,0,0,0,.278,1.237Z" transform="translate(-85.184 -179.695)"/><path class="g" d="M153.291,165.9a.962.962,0,1,0-.961-.961.946.946,0,0,0,.961.961Z" transform="translate(-95.38 -164.433)"/><path class="g" d="M98.711,177.186c-.025-.4.4-.455.509-.759" transform="translate(-80.773 -167.825)"/><path class="g" d="M100.247,175.7v-.05c.025.228.051.455.1.708v-.1a6.14,6.14,0,0,1-.1.683v-.025a6.515,6.515,0,0,1,.1-.682,1.8,1.8,0,0,0-.228-1.012,1.332,1.332,0,0,0-.329-.582,2.119,2.119,0,0,0-.733-.683h0c.38.936.759,1.9,1.164,2.834.025-.152.051-.253.073-.431a1.876,1.876,0,0,0-.051-.987c-.073-.2-.177-.4-.252-.582a2.093,2.093,0,0,0-.582-.655,1.6,1.6,0,0,0-.608-.354,1.78,1.78,0,0,0-.961-.2c-.228.025-.43.05-.655.073a4.258,4.258,0,0,0-.608.253c-.025.025-.05.025-.073.05.655-.073,1.29-.177,1.948-.253h-.025a6.14,6.14,0,0,1-.683-.1,1.812,1.812,0,0,0-1.012.228,1.35,1.35,0,0,0-.582.329,2.128,2.128,0,0,0-.683.734,3.37,3.37,0,0,0-.4,1.492,2.75,2.75,0,0,0,.759,1.872,2.591,2.591,0,0,0,1.164.683,2.08,2.08,0,0,0,1.037.051,2.256,2.256,0,0,0,.987-.3,1.913,1.913,0,0,0,.734-.683,2.323,2.323,0,0,0,.48-.885,2.456,2.456,0,0,0,.025-1.417Z" transform="translate(-79.78 -167.048)"/><path class="g" d="M137.2,254.317a.382.382,0,0,0-.278.151c0-.05.025-.1.025-.151" transform="translate(-91.184 -189.043)"/><path class="g" d="M137.844,253.536c0-.025,0-.025-.025-.051a1.83,1.83,0,0,0-.379-.683l-.3-.228a1.114,1.114,0,0,0-.557-.177,1.086,1.086,0,0,0-.405,0,.659.659,0,0,0-.379.1.562.562,0,0,0-.329.2,1.1,1.1,0,0,0-.405.43c0,.025-.025.025-.025.051a1.516,1.516,0,0,0,0,1.569,1.668,1.668,0,0,0,.557.557,1.2,1.2,0,0,0,.582.177,1.237,1.237,0,0,0,.608-.025,1.591,1.591,0,0,0,.683-.405,1.612,1.612,0,0,0,.379-1.518Z" transform="translate(-90.61 -188.515)"/></g><path class="h" d="M141.734,150.626c-.152.228.1,11.739.253,15.279.073,1.442-.025,3.188-.911,4.1a4.4,4.4,0,0,1-4.908.962,4.244,4.244,0,0,1-2.3-4.048l.127-14.218" transform="translate(-35.105 -32.33)"/><path class="i" d="M114.321,107.043s-3.922,33.5,17.33,34.66c19.1,0,18.646-29.879,14.32-40.732" transform="translate(-29.703 -18.803)"/><ellipse class="j" cx="1.898" cy="1.518" rx="1.898" ry="1.518" transform="translate(106.074 104.156) rotate(-77.144)"/><path class="k" d="M137.482,132.44s.1,3.466.38,5.794c.126,1.012,1.467-.43,1.467-.43" transform="translate(-36.09 -27.375)"/><path class="l" d="M149.79,123.513a3.941,3.941,0,0,0-3.719-.582" transform="translate(-38.43 -24.723)"/><path class="l" d="M127.633,122.7s-2.479.354-3.364,1.391" transform="translate(-32.491 -24.722)"/><path class="k" d="M139.095,147.392a1.391,1.391,0,0,1-1.265.253" transform="translate(-36.185 -31.449)"/><ellipse class="j" cx="1.518" cy="1.898" rx="1.518" ry="1.898" transform="matrix(0.924, -0.384, 0.384, 0.924, 92.452, 101.662)"/><path class="m" d="M111.577,109.607c6.831,3.8,30.359,3.289,35.925.252-1.771-12.4-6.072-19.227-18.468-18.975S113.854,97.463,111.577,109.607Z" transform="translate(-29.033 -16.053)"/><ellipse class="m" cx="12.018" cy="9.867" rx="12.018" ry="9.867" transform="translate(99.495 56.869)"/><path class="j" d="M152.38,113.1a7.414,7.414,0,0,0-3.643-2.277c-.733-.2-.733-2.606-.733-3.871a12.3,12.3,0,0,0-.051-1.492,27.151,27.151,0,0,0-1.237-5.311,21.561,21.561,0,0,0-5.009-8.1,18.981,18.981,0,0,0-30.309,4.3,28.633,28.633,0,0,0-3.364,10.853c-.051.405-.051.81-.076,1.214a15.051,15.051,0,0,1-.127,1.569c-.126.655-.329.759-1.012,1.012a1.537,1.537,0,0,0-.3.127,7.6,7.6,0,0,0-3.542,2.808c-2.28,3.441-2.356,9.989.958,13a8.055,8.055,0,0,0,5.288,1.8,7.387,7.387,0,0,0,3.213-.683c1.746-.86.911-3.465.3-5.389-.151-.455-.278-.885-.354-1.214a60.515,60.515,0,0,1-1.189-7.135,21.159,21.159,0,0,1,2.024-11.03c2.934-6.3,8.551-10.272,14.648-10.373a16.209,16.209,0,0,1,14.446,9.361,25.271,25.271,0,0,1,2.4,12.042,47.354,47.354,0,0,1-1.442,8.324l-.025.127c-.073.354-.2.709-.3,1.063-.354,1.138-.733,2.352-.2,3.263a2.426,2.426,0,0,0,1.644,1.091c3.466.835,6.553.051,8.248-2.049C155.34,122.84,155.188,116.364,152.38,113.1Z" transform="translate(-26.244 -14.816)"/><path class="c" d="M158.3,253.36H89.481a1.945,1.945,0,0,1-1.9-1.973h0a1.964,1.964,0,0,1,1.9-1.973H158.3a1.945,1.945,0,0,1,1.9,1.973h0A1.945,1.945,0,0,1,158.3,253.36Z" transform="translate(-22.497 -59.241)"/><path class="c" d="M151.027,238H92.915a2.9,2.9,0,0,1-2.859-2.353l-7.464-38.683a2.91,2.91,0,0,1,2.859-3.466h71.725a2.91,2.91,0,0,1,2.884,3.365l-6.148,38.683A2.931,2.931,0,0,1,151.027,238Z" transform="translate(-21.123 -44.009)"/><path class="j" d="M264.358,251.949H225.3a2.117,2.117,0,0,1-2.1-2.125v-3.466a2.1,2.1,0,0,1,2.1-2.125h39.088a2.117,2.117,0,0,1,2.1,2.125v3.466A2.155,2.155,0,0,1,264.358,251.949Z" transform="translate(-59.439 -57.829)"/><path class="n" d="M254.273,242.329h-36.28a2.095,2.095,0,0,1-2.1-2.1v-.885a2.1,2.1,0,0,1,2.1-2.1H254.3a2.1,2.1,0,0,1,2.1,2.1v.885a2.133,2.133,0,0,1-2.127,2.1Z" transform="translate(-57.45 -55.925)"/><circle class="o" cx="4.427" cy="4.427" r="4.427" transform="translate(96.206 167.176)"/><path class="m" d="M47.249,225.456H32.6a2.654,2.654,0,0,0-2.631,2.96l.252,2.429c-3.693.2-6.654,3.036-6.654,6.452,0,3.593,3.188,6.476,7.085,6.476.329,0,.632-.025.936-.051l.073.734a2.677,2.677,0,0,0,2.632,2.378H45.706a2.643,2.643,0,0,0,2.631-2.427l1.521-16.065a2.6,2.6,0,0,0-2.608-2.884ZM30.677,241.245c-2.5,0-4.554-1.771-4.554-3.946a4.26,4.26,0,0,1,4.377-3.946l.835,7.843a5.314,5.314,0,0,1-.658.048Z" transform="translate(-5.058 -52.714)"/><path class="b" d="M12.9,31.948H70.784a4.074,4.074,0,0,1,4.074,4.074V83.839a1.57,1.57,0,0,1-2.833.936l-6.377-8.653a4.074,4.074,0,0,0-3.289-1.673H12.9a4.074,4.074,0,0,1-4.074-4.074V36.022A4.074,4.074,0,0,1,12.9,31.948Z" transform="translate(-1.041 0)"/><path class="c" d="M44.985,50.725H20.2a2.149,2.149,0,0,0-2.15,2.151h0a2.149,2.149,0,0,0,2.15,2.151h24.79a2.149,2.149,0,0,0,2.151-2.151h0a2.149,2.149,0,0,0-2.151-2.151Z" transform="translate(-3.554 -5.115)"/><path class="d" d="M35.142,69.109H71.068a2.148,2.148,0,0,0,2.15-2.15h0a2.149,2.149,0,0,0-2.15-2.151H35.142a2.149,2.149,0,0,0-2.15,2.151h0a2.148,2.148,0,0,0,2.15,2.15Z" transform="translate(-7.625 -8.952)"/><path class="c" d="M33.853,40.989H20.2a2.149,2.149,0,0,0-2.15,2.151v.127a2.148,2.148,0,0,0,2.15,2.15H33.853A2.149,2.149,0,0,0,36,43.266V43.14a2.149,2.149,0,0,0-2.151-2.151Z" transform="translate(-3.554 -2.463)"/><path class="d" d="M22.972,79.541H67.752A2.149,2.149,0,0,0,69.9,77.39h0a2.148,2.148,0,0,0-2.15-2.15H22.972a2.149,2.149,0,0,0-2.151,2.15h0a2.149,2.149,0,0,0,2.151,2.151Z" transform="translate(-4.31 -11.793)"/></g></svg>