<svg xmlns="http://www.w3.org/2000/svg" xmlns:xlink="http://www.w3.org/1999/xlink" width="218.969" height="227.635" viewBox="0 0 218.969 227.635"><defs><style>.a,.b,.h,.i,.j,.m,.o,.r{fill:none;}.b{stroke:#3e9ff8;stroke-width:1.832px;}.b,.j,.n,.t,.u{stroke-miterlimit:10;}.c{fill:#3e9ff8;}.d{fill:#ff5c76;}.e,.n{fill:#ffc3a9;}.e,.n,.o{stroke:#e89589;}.e,.h,.i,.m,.o,.r{stroke-linecap:round;stroke-linejoin:round;}.e,.h,.i,.j,.m,.n,.o{stroke-width:1.099px;}.f{fill:#621cd1;}.g{fill:#ffeb7d;}.h,.i,.j{stroke:#f9c126;}.i{stroke-dasharray:4.298 4.298;}.k{fill:#ff859b;}.l{clip-path:url(#a);}.m{stroke:#ff5c76;}.p,.t,.u{fill:#465cff;}.q{fill:#a4d2fc;}.r{stroke:#fff;stroke-width:2.198px;}.s,.v{fill:#fff;}.t,.u{stroke:#6088e3;stroke-width:0.366px;}.t,.v{opacity:0.5;isolation:isolate;}</style><clipPath id="a"><path class="a" d="M130.461,133.545c0-6.327,9.2-21,19.558-32.212s23.584-16.682,37.964-6.04,24.447,23.872,24.16,37.677-4.889,20.421-26.46,21c-11.217,0-12.223-1.466-12.223-1.466L136.5,143.324Z" transform="translate(-130.461 -89.57)"/></clipPath></defs><g transform="translate(-10.521 -4.997)"><path class="b" d="M78.94,227.487s-2.013,21.282-6.039,21.282-7.478-21.284-7.478-21.284Z" transform="translate(-11.807 -47.849)"/><path class="b" d="M251.194,227.487s2.013,21.284,6.039,21.284,7.478-21.284,7.478-21.284Z" transform="translate(-51.76 -47.849)"/><path class="c" d="M201.575,172.526H81.872C62.138,172.526,46,187.165,46,205.055v6.1c0,4.573,4.082,8.283,9.146,8.283H227.974c5.062,0,9.146-3.71,9.146-8.283v-6.385C237.12,187.05,221.128,172.526,201.575,172.526Z" transform="translate(-7.63 -36.029)"/><path class="c" d="M228.462,135.351c0-11.3-13.633-20.535-30.314-20.535H95.988c-16.825,0-30.6,9.318-30.6,20.707v4.516c0,11.389,13.776,20.708,30.6,20.708h102.16c16.682,0,30.314-9.232,30.314-20.536v-.805h0Z" transform="translate(-11.799 -23.618)"/><path class="d" d="M171.359,89.452c-11.447-2.646-19.5-6.672-16.652-18.982s-1.323-26.719,15.847-32.27c17.2-5.55,23.784,2.041,35.549,25.425,5.033,10.009,21.829,11.13,25.885,15.157,4.027,4.027,12.6,27.064-15.214,29.336S171.359,89.452,171.359,89.452Z" transform="translate(-30.885 -6.768)"/><path class="e" d="M186.735,63.329c.4-.6,5.119-3.279,5.695-.086s-6.615,5.32-7.19,5.09" transform="translate(-37.575 -12.196)"/><path class="f" d="M205.44,194.784c-.92-1.984-3.422-2.473-5.292-3.218-3.135-1.265-5.608-.314-8.542,1.007-1.64.719-4.343,1.093-5.181,2.876a2.276,2.276,0,0,0,2.388,3.192,1.1,1.1,0,0,0,.633.4,12.428,12.428,0,0,1,5.723,2.7,9.951,9.951,0,0,1,2.5,5.181c.4,2.013,1.409,7.506,4.717,5.407,1.438-.891,1.9-2.933,2.276-4.458a37.457,37.457,0,0,0,.978-6.184c.086-1.208.057-2.387.144-3.6A6.778,6.778,0,0,0,205.44,194.784Z" transform="translate(-37.787 -39.996)"/><path class="f" d="M144.741,267.972c-.777-2.732-2.129-7.478-6.011-5.378-4.746,2.59-2.962,3.135-3.883,8.168a16.841,16.841,0,0,1-1.582,3.969,72.371,72.371,0,0,1-4.257,7.392c-.776,1.207-1.927,2.7-1.438,4.228.719,2.214,3.509,1.639,5.119.949,2.186-.949,3.739-2.732,5.436-4.286,2.071-1.9,4.372-3.454,5.925-5.838C145.949,274.3,145.661,271.107,144.741,267.972Z" transform="translate(-25.148 -55.287)"/><path class="g" d="M126.472,242.683c-6.327-12.079-16.969-38.54-7.478-54.07-13.805,1.727-24.361-7.191-17.774-20.42,4.228-8.053,39.345-15.819,39.345-15.819l56.516,10.785s3.454,14.956-10.5,22.292c-11.044,5.809-27.9,8.629-31.633,9.2s-10.354,3.164-10.929,13.805c-.144,2.761,0,22.722.863,31.633C141.6,247.86,130.1,244.955,126.472,242.683Z" transform="translate(-19.074 -31.695)"/><path class="h" d="M150.328,268.427c-.086-.432-.2-1.007-.374-1.7" transform="translate(-29.987 -56.289)"/><path class="i" d="M147.7,241.093c-3.218-12.425-10.411-40.237,5.206-48.549,18.408-9.779,41.131-8.053,45.442-21a48.04,48.04,0,0,0,2.3-8.916" transform="translate(-28.539 -33.901)"/><path class="h" d="M216.206,160.141c-.144-1.5-.921-1.177-.921-1.177" transform="translate(-44.037 -33.106)"/><path class="j" d="M122.95,194.822s7.679-11.792,18.924-16.248" transform="translate(-24.179 -37.33)"/><path class="j" d="M116.757,178.531s12.684-6.068,24.62-4" transform="translate(-22.847 -36.368)"/><path class="k" d="M130.461,133.545c0-6.327,9.2-21,19.558-32.212s23.584-16.682,37.964-6.04,24.447,23.872,24.16,37.677-4.889,20.421-26.46,21c-11.217,0-12.223-1.466-12.223-1.466L136.5,143.324Z" transform="translate(-25.795 -18.189)"/><g class="l" transform="translate(104.666 71.382)"><path class="d" d="M186.574,139.163l.748,1.265.748,1.265h-2.934l.748-1.265.69-1.265m0-.863h0a.856.856,0,0,0-.747.431L185.078,140l-.748,1.266a.918.918,0,0,0,0,.863.859.859,0,0,0,.748.432h2.933a.859.859,0,0,0,.748-.432.918.918,0,0,0,0-.863L188.012,140l-.747-1.265a.77.77,0,0,0-.691-.431Z" transform="translate(-142.023 -100.05)"/><path class="d" d="M182.1,115.139l-1.177-1.064,1.064-1.177a.428.428,0,1,0-.633-.575l-1.064,1.177-1.177-1.064a.428.428,0,1,0-.575.633l1.177,1.064-1.064,1.177a.428.428,0,1,0,.633.575l1.064-1.177,1.177,1.064a.427.427,0,1,0,.575-.633Z" transform="translate(-140.767 -94.431)"/><path class="d" d="M174.611,103.22a1.151,1.151,0,1,1-1.15,1.15,1.151,1.151,0,0,1,1.15-1.15m0-.863a2,2,0,1,0,1.427.586A2.013,2.013,0,0,0,174.611,102.357Z" transform="translate(-139.523 -92.32)"/><path class="d" d="M169.839,125.3l-.489-1.5,1.5-.489a.437.437,0,0,0-.259-.834l-1.5.489-.489-1.491a.437.437,0,1,0-.834.258l.489,1.5-1.5.489a.436.436,0,1,0,.258.834l1.5-.489.489,1.5a.456.456,0,0,0,.549.287.4.4,0,0,0,.284-.55Z" transform="translate(-138.202 -96.366)"/><path class="d" d="M182.789,124.4l1.122.978,1.122.978-1.413.489-1.409.489.287-1.438.288-1.5m0-.863a1.02,1.02,0,0,0-.288.058.849.849,0,0,0-.575.661l-.287,1.438-.287,1.438a.844.844,0,0,0,.287.805.876.876,0,0,0,.575.2,1.037,1.037,0,0,0,.287-.057l1.413-.489,1.413-.489a.858.858,0,0,0,.288-1.467l-1.122-.978-1.122-.978a1.691,1.691,0,0,0-.575-.144Z" transform="translate(-141.402 -96.875)"/><path class="d" d="M195.052,120.507a.968.968,0,0,1-.287.029,1.151,1.151,0,1,1,0-2.3c.086,0,.2.028.287.028v-.891c-.086,0-.2-.029-.287-.029a2.013,2.013,0,0,0,0,4.027.967.967,0,0,0,.287-.029Z" transform="translate(-143.857 -95.543)"/><path class="d" d="M173.463,136.783a1.01,1.01,0,0,1,.057-.287,1.146,1.146,0,1,1,2.157.776,1.186,1.186,0,0,1-.144.259l.834.287a1,1,0,0,0,.115-.258,2.02,2.02,0,0,0-3.8-1.381c-.028.086-.057.173-.086.287Z" transform="translate(-139.523 -99.308)"/><path class="d" d="M159.9,113.333a1.006,1.006,0,0,1,.058-.287,1.146,1.146,0,1,1,2.157.776,1.186,1.186,0,0,1-.144.259l.834.287a1.042,1.042,0,0,0,.115-.259,2.02,2.02,0,0,0-3.8-1.38c-.029.086-.057.172-.086.287Z" transform="translate(-136.607 -94.265)"/><path class="d" d="M167.641,98.551l-.489-1.5,1.5-.489a.437.437,0,1,0-.259-.834l-1.5.489-.489-1.5a.436.436,0,1,0-.834.258l.489,1.5-1.5.489a.436.436,0,1,0,.259.834l1.5-.489.489,1.5a.456.456,0,0,0,.549.287.4.4,0,0,0,.285-.546Z" transform="translate(-137.729 -90.613)"/><path class="d" d="M195.13,132.533a1.151,1.151,0,1,1-1.15,1.15,1.151,1.151,0,0,1,1.15-1.15m0-.863a2,2,0,1,0,1.427.585A2.013,2.013,0,0,0,195.13,131.67Z" transform="translate(-143.936 -98.624)"/><path class="d" d="M163.619,136.2a1.151,1.151,0,1,1-1.151,1.151,1.151,1.151,0,0,1,1.151-1.151m0-.863a2,2,0,1,0,1.427.586,2.013,2.013,0,0,0-1.427-.586Z" transform="translate(-137.159 -99.412)"/><path class="d" d="M178.245,149.379a.973.973,0,0,1-.288-.029,1.158,1.158,0,0,1,.575-2.243,1.015,1.015,0,0,1,.259.115l.23-.863-.259-.086a2.006,2.006,0,1,0-1.006,3.883c.086.029.2.029.287.057Z" transform="translate(-140.309 -101.751)"/><path class="d" d="M165.914,147.964l-.662,1.323-.662,1.323-.805-1.237-.805-1.236,1.467-.086,1.467-.086m.719-.46h0a.918.918,0,0,0-.777-.4l-1.466.086-1.467.086a.9.9,0,0,0-.719.461.849.849,0,0,0,.057.863l.805,1.236.805,1.237a.917.917,0,0,0,.776.4.9.9,0,0,0,.719-.46l.662-1.323.662-1.323a.845.845,0,0,0-.057-.863Z" transform="translate(-137.268 -101.943)"/><path class="d" d="M197.653,148.248l.144-1.582,1.582.144a.433.433,0,0,0,.057-.863l-1.582-.144.144-1.582a.433.433,0,0,0-.863-.057l-.144,1.582-1.582-.144a.433.433,0,0,0-.058.863l1.582.144-.144,1.582a.407.407,0,0,0,.4.46.465.465,0,0,0,.461-.4Z" transform="translate(-144.329 -101.224)"/><path class="d" d="M202.774,139.348a1.009,1.009,0,0,1,.057-.287,1.146,1.146,0,1,1,2.157.776,1.186,1.186,0,0,1-.144.259l.834.287a1.02,1.02,0,0,0,.115-.258,2.02,2.02,0,1,0-3.8-1.381c-.028.086-.057.173-.086.287Z" transform="translate(-145.827 -99.86)"/><path class="d" d="M214.7,161.186l-.6,1.352-.6,1.352-.863-1.177-.863-1.177,1.466-.173,1.467-.173m.719-.517h0a.835.835,0,0,0-.776-.345l-1.467.173-1.467.173a.818.818,0,0,0-.69.517.919.919,0,0,0,.086.863l.863,1.177.863,1.177a.837.837,0,0,0,.777.345.858.858,0,0,0,.69-.518l.6-1.352.6-1.352a.92.92,0,0,0-.086-.863Z" transform="translate(-147.77 -104.786)"/><path class="d" d="M221.859,154.632l.173-1.582,1.582.172a.4.4,0,0,0,.46-.374.422.422,0,0,0-.374-.46l-1.582-.173.173-1.582a.419.419,0,0,0-.834-.086l-.173,1.582-1.582-.173a.4.4,0,0,0-.46.374.422.422,0,0,0,.374.46l1.582.173-.173,1.582a.4.4,0,0,0,.374.46.384.384,0,0,0,.46-.374Z" transform="translate(-149.554 -102.603)"/><path class="d" d="M232.1,131.715a1.154,1.154,0,1,1-1.611-.259,1.177,1.177,0,0,1,1.611.259m.69-.489a2.016,2.016,0,1,0-.431,2.819A2.016,2.016,0,0,0,232.792,131.226Z" transform="translate(-151.686 -98.352)"/><path class="d" d="M216.163,139.429l.921-1.265,1.265.92a.432.432,0,1,0,.518-.69l-1.265-.92.921-1.263a.431.431,0,1,0-.69-.517l-.921,1.265-1.265-.921a.432.432,0,1,0-.518.691l1.266.92-.921,1.266a.446.446,0,0,0,.086.6.423.423,0,0,0,.6-.089Z" transform="translate(-148.633 -99.452)"/><path class="d" d="M227.512,143.677l-.115,1.466-.115,1.467-1.208-.834-1.208-.834,1.323-.633,1.323-.633m.691-.489a.686.686,0,0,0-.2-.2.924.924,0,0,0-.863-.086l-1.323.633-1.323.633a.868.868,0,0,0-.489.719.7.7,0,0,0,.173.575.672.672,0,0,0,.2.2l1.208.834,1.208.834a.92.92,0,0,0,.863.086.863.863,0,0,0,.489-.719l.115-1.467.115-1.466a.694.694,0,0,0-.172-.575Z" transform="translate(-150.576 -101.025)"/><path class="d" d="M200.1,168.471a.665.665,0,0,1-.2-.2,1.154,1.154,0,1,1,1.87-1.352,1.187,1.187,0,0,1,.144.259l.719-.518c-.057-.086-.086-.173-.144-.259a2.017,2.017,0,0,0-3.25,2.388,1.507,1.507,0,0,0,.2.23Z" transform="translate(-145.168 -105.916)"/><path class="d" d="M209.368,149.005a1.042,1.042,0,0,1,.259-.115,1.183,1.183,0,0,1,1.438.777,1.159,1.159,0,0,1-.777,1.438.994.994,0,0,1-.287.028l.259.834a1.036,1.036,0,0,0,.287-.057,2.021,2.021,0,1,0-1.122-3.883,1.014,1.014,0,0,0-.259.116Z" transform="translate(-147.387 -102.125)"/><path class="d" d="M225.285,163.958a1.153,1.153,0,1,1-1.61-.259,1.177,1.177,0,0,1,1.61.259m.691-.489a2.017,2.017,0,1,0-.432,2.819,1.995,1.995,0,0,0,.432-2.819Z" transform="translate(-150.219 -105.286)"/><path class="d" d="M219.827,126.011l-.6,1.352-.6,1.352-.863-1.177-.863-1.177,1.467-.172,1.467-.173m.719-.518h0a.837.837,0,0,0-.776-.345l-1.467.173-1.467.173a.817.817,0,0,0-.69.518.92.92,0,0,0,.086.863l.863,1.177.863,1.177a.836.836,0,0,0,.776.345.856.856,0,0,0,.691-.517l.6-1.352.6-1.352a.922.922,0,0,0-.086-.863Z" transform="translate(-148.873 -97.221)"/><path class="d" d="M200.993,153.052a1.151,1.151,0,1,1-1.151,1.151,1.151,1.151,0,0,1,1.151-1.151m0-.863a2,2,0,1,0,1.427.586A2.013,2.013,0,0,0,200.993,152.189Z" transform="translate(-145.197 -103.037)"/><path class="d" d="M191.338,158.585l.747,1.265.748,1.265H189.9l.748-1.265.691-1.265m0-.863h0a.857.857,0,0,0-.748.432l-.748,1.265-.747,1.266a.913.913,0,0,0,0,.863.856.856,0,0,0,.747.431h2.934a.856.856,0,0,0,.747-.431.918.918,0,0,0,0-.863l-.747-1.266-.748-1.265A.768.768,0,0,0,191.338,157.722Z" transform="translate(-143.047 -104.227)"/><path class="d" d="M217.558,114.873a1.7,1.7,0,0,1-.231.173,1.145,1.145,0,1,1-1.093-2.013,1.014,1.014,0,0,1,.259-.115l-.432-.776a1.01,1.01,0,0,0-.259.115,2.014,2.014,0,0,0,1.927,3.538,2.69,2.69,0,0,1,.231-.144Z" transform="translate(-148.589 -94.424)"/><path class="d" d="M194.18,98.754l.92-1.265,1.27.921a.432.432,0,0,0,.517-.691l-1.265-.92.92-1.265a.432.432,0,1,0-.69-.518l-.921,1.265-1.265-.92a.431.431,0,1,0-.517.69l1.265.921-.925,1.265a.446.446,0,0,0,.086.6.423.423,0,0,0,.6-.086Z" transform="translate(-143.906 -90.701)"/><path class="d" d="M206.123,117.876a1.151,1.151,0,1,1-1.151,1.151,1.151,1.151,0,0,1,1.151-1.151m0-.863a2,2,0,1,0,1.427.586,2.013,2.013,0,0,0-1.427-.586Z" transform="translate(-146.3 -95.472)"/><path class="d" d="M188.512,107.178l-1.323-.633-1.323-.633,1.237-.834,1.236-.834.115,1.467.057,1.466m.489.719h0a.829.829,0,0,0,.374-.776l-.115-1.467-.115-1.466a.863.863,0,0,0-.489-.719.842.842,0,0,0-.863.057l-1.235.834-1.236.834a.831.831,0,0,0-.374.776.87.87,0,0,0,.489.719l1.323.633,1.323.633A1.02,1.02,0,0,0,189,107.9Z" transform="translate(-142.178 -92.539)"/><path class="d" d="M201.909,108.131a1.015,1.015,0,0,1,.288.057,1.147,1.147,0,1,1-1.035,2.013l-.314.834a1.048,1.048,0,0,0,.258.115,2.02,2.02,0,0,0,1.381-3.8c-.086-.028-.173-.057-.287-.086Z" transform="translate(-145.599 -93.376)"/><path class="d" d="M149.292,117.425a1.152,1.152,0,1,1-.752-.464,1.154,1.154,0,0,1,.752.464m.69-.489a2.016,2.016,0,1,0-.432,2.819A2.016,2.016,0,0,0,149.982,116.936Z" transform="translate(-133.876 -95.279)"/><path class="d" d="M147.64,137.225l.921-1.266,1.265.921a.432.432,0,1,0,.518-.69l-1.265-.921L150,134a.432.432,0,1,0-.69-.518l-.921,1.266-1.265-.921a.432.432,0,1,0-.518.69l1.266.921-.921,1.265a.447.447,0,0,0,.086.6.424.424,0,0,0,.6-.086Z" transform="translate(-133.893 -98.975)"/><path class="d" d="M141.048,128.576l-.6,1.352-.6,1.352-.863-1.177-.863-1.177,1.467-.173,1.466-.172m.719-.518h0a.837.837,0,0,0-.776-.345l-1.467.173-1.466.173a.819.819,0,0,0-.691.518.922.922,0,0,0,.086.863l.863,1.177.863,1.177a.834.834,0,0,0,.776.345.857.857,0,0,0,.69-.517l.6-1.352.6-1.352a.92.92,0,0,0-.086-.863Z" transform="translate(-131.931 -97.773)"/><path class="d" d="M154.412,126.99a.447.447,0,0,1-.23-.173,1.142,1.142,0,0,1,1.5-1.727.777.777,0,0,1,.2.23l.575-.662a.666.666,0,0,0-.2-.2,2.017,2.017,0,0,0-2.674,3.02c.086.057.144.115.23.173Z" transform="translate(-135.287 -96.964)"/><path class="d" d="M137.557,144.212a.454.454,0,0,1-.23-.173,1.142,1.142,0,1,1,1.5-1.727.785.785,0,0,1,.2.23l.575-.661a.678.678,0,0,0-.2-.2,2.017,2.017,0,1,0-2.674,3.021c.086.057.144.114.23.172Z" transform="translate(-131.662 -100.668)"/></g><path class="m" d="M159.819,121.961c-.287,1.15-3.163,11.792-7.19,17.256" transform="translate(-30.562 -25.155)"/><path class="m" d="M145.667,140.281a13.632,13.632,0,0,1,8.341,11.5" transform="translate(-29.065 -29.094)"/><path class="e" d="M182.714,78.358c-.086.173,1.381,8.139,1.87,10.555a3.689,3.689,0,0,1-.489,2.79,2.747,2.747,0,0,1-3.02,1.381A3.02,3.02,0,0,1,179,90.524l-1.5-9.865" transform="translate(-35.913 -15.777)"/><path class="n" d="M160.69,56.523s1.151,24.562,15.157,20.251c9.576-3.279,6.528-21.485,3.538-27.726" transform="translate(-32.296 -9.474)"/><ellipse class="f" cx="1.035" cy="1.294" rx="1.035" ry="1.294" transform="matrix(0.942, -0.335, 0.335, 0.942, 141.34, 52.163)"/><path class="o" d="M172.756,71.4a10.851,10.851,0,0,1-.086,2.444c-.144.892,1.524-.144,1.524-.144" transform="translate(-34.87 -14.281)"/><path class="o" d="M179.535,59.244a2.179,2.179,0,0,0-2.1.144" transform="translate(-35.897 -11.623)"/><path class="o" d="M167.561,62.968a4.082,4.082,0,0,0-1.668,1.177" transform="translate(-33.415 -12.467)"/><path class="o" d="M179.27,76.526a1.8,1.8,0,0,1-1.727,1.438" transform="translate(-35.92 -15.383)"/><ellipse class="f" cx="1.035" cy="1.294" rx="1.035" ry="1.294" transform="matrix(0.942, -0.335, 0.335, 0.942, 133.345, 54.003)"/><path class="d" d="M170.563,47.369h-.46c-2.876,0-1.151.288-6.04-2.59s-8.053-1.15-11.5.575-3.164,8.629,2.3,11.217,11.217.288,13.517-2.59c2.157-2.7,4.056-3.624,5.695-3.48,0,0,1.783.314,2.355,1.177s0,1.727,0,2.59c0,6.011,4.026,3.739,4.026,3.739l.575-12.367Z" transform="translate(-30.06 -8.225)"/><path class="p" d="M149.164,177.094l-35.2-7.449a1.42,1.42,0,0,1-.4-2.617l21.283-11.994a1.3,1.3,0,0,1,.978-.144l35.2,7.449a1.421,1.421,0,0,1,.4,2.618L150.142,176.95a1.279,1.279,0,0,1-.978.144Z" transform="translate(-22.006 -32.228)"/><path class="e" d="M144.107,149.075c-4.6.489-6.472,4-5.608,6.184.834,2.214,5.148,2.445,6.1,2.962.92.518,2.214,3.71,2.7,3.279.517-.46-.057-3.365-.489-4.343,2.071,1.553,2.876,4.717,3.652,3.8s-.517-4.113-1.38-5.838c1.38,1.035,1.553,2.243,2.473,3.509.892,1.237,1.122,1.754,1.639,1.035.518-.69-.719-4.6-1.841-6.1,1.87.834,2.848,5.206,3.624,4.516s-.115-3.394-.978-5.119-3.106-3.135-6.7-3.826Z" transform="translate(-27.479 -30.986)"/><path class="q" d="M146.087,173.31l-36.21-7.647a1.476,1.476,0,0,1-1.064-.949l-8.2-25.08a1.407,1.407,0,0,1,1.64-1.812l36.21,7.651a1.475,1.475,0,0,1,1.064.949l8.2,25.08a1.413,1.413,0,0,1-1.639,1.809Z" transform="translate(-19.361 -28.559)"/><path class="m" d="M196.768,121.961s7.765,14.955,5.752,19.269-17.257,2.59-19.845,4.889" transform="translate(-37.024 -25.155)"/><path class="e" d="M177.091,151.305a27.987,27.987,0,0,1-3.854-3.135c-.489-.489-.949.949,1.208,3.6-2.646-.719-6.471,1.208-7.449,2.876-.949,1.668-1.927,4.317-1.208,5.033s1.927-3.6,3.854-4.317c-1.208,1.438-2.646,5.292-2.157,6.011s.719.23,1.668-.949c.95-1.208,1.208-2.387,2.646-3.365-.949,1.668-2.387,4.8-1.668,5.752s1.668-2.157,3.854-3.6c-.489.949-1.208,3.854-.719,4.317s1.927-2.646,2.876-3.135,5.292-.489,6.241-2.646C183.332,155.619,181.636,152.024,177.091,151.305Z" transform="translate(-33.339 -30.771)"/><path class="q" d="M103.947,80.211,28.162,67.671a4.437,4.437,0,0,1-3.6-3.308L10.589,7.791a2.243,2.243,0,0,1,2.56-2.761L88.56,17.51a4.437,4.437,0,0,1,3.6,3.308l14.093,56.889a2.035,2.035,0,0,1-2.3,2.5Z" transform="translate(0 0)"/><path class="p" d="M94.32,29.219,12.639,15.7l-2.013-7.91a2.244,2.244,0,0,1,2.531-2.761L89.115,17.6a3.674,3.674,0,0,1,2.962,2.7Z" transform="translate(-0.008 -0.001)"/><path class="r" d="M27.962,51.243l-3.394-2.819,2.186-2.933" transform="translate(-3.021 -8.709)"/><path class="s" d="M87.381,26.175,18.3,14.929A2.565,2.565,0,0,1,16.14,12.4h0A2.568,2.568,0,0,1,19.1,9.867L88.187,21.111a2.565,2.565,0,0,1,2.157,2.531h0a2.553,2.553,0,0,1-2.963,2.533Z" transform="translate(-1.209 -1.041)"/><path class="t" d="M47.9,62.231,35.278,60.16a1.478,1.478,0,0,1-1.208-1.093L26.535,29.7A1.491,1.491,0,0,1,28.2,27.861l12.626,2.068a1.479,1.479,0,0,1,1.211,1.1l7.535,29.365A1.474,1.474,0,0,1,47.9,62.231Z" transform="translate(-3.434 -4.914)"/><path class="u" d="M78.316,67.362,65.692,65.291A1.48,1.48,0,0,1,64.484,64.2L56.949,34.833A1.491,1.491,0,0,1,58.615,33l12.626,2.071a1.48,1.48,0,0,1,1.208,1.093l7.535,29.365a1.474,1.474,0,0,1-1.668,1.838Z" transform="translate(-9.975 -6.018)"/><path class="t" d="M108.732,71.758,96.1,69.687a1.48,1.48,0,0,1-1.208-1.093L87.358,39.229a1.491,1.491,0,0,1,1.671-1.841l12.627,2.071a1.481,1.481,0,0,1,1.208,1.093L110.4,69.917a1.475,1.475,0,0,1-1.668,1.841Z" transform="translate(-16.515 -6.963)"/><path class="v" d="M51.741,78.329,39.172,76.258a1.515,1.515,0,0,1-1.208-1.093h0a1.491,1.491,0,0,1,1.665-1.87L52.2,75.366a1.517,1.517,0,0,1,1.208,1.093h0a1.467,1.467,0,0,1-1.665,1.87Z" transform="translate(-5.891 -14.685)"/><path class="s" d="M82.153,83.459,69.584,81.388A1.517,1.517,0,0,1,68.376,80.3h0a1.491,1.491,0,0,1,1.668-1.87L82.613,80.5a1.517,1.517,0,0,1,1.208,1.093h0a1.468,1.468,0,0,1-1.668,1.87Z" transform="translate(-12.431 -15.788)"/><path class="v" d="M112.564,87.856,100,85.784a1.517,1.517,0,0,1-1.21-1.091h0a1.491,1.491,0,0,1,1.668-1.87l12.568,2.071a1.517,1.517,0,0,1,1.208,1.093h0a1.468,1.468,0,0,1-1.666,1.87Z" transform="translate(-18.971 -16.734)"/><path class="r" d="M114.082,55.64l3.653,2.732-2.129,2.933" transform="translate(-22.272 -10.891)"/></g></svg>