<svg xmlns="http://www.w3.org/2000/svg" xmlns:xlink="http://www.w3.org/1999/xlink" width="219" height="163.003" viewBox="0 0 219 163.003"><defs><style>.a,.k,.l,.m,.n{fill:none;}.b{fill:#a4d2fc;}.c{fill:#465cff;}.d,.i{fill:#ffc3a9;}.d,.i,.k{stroke:#e89589;}.d,.k,.l,.m,.n{stroke-linecap:round;stroke-linejoin:round;}.d,.i,.k,.n{stroke-width:1.222px;}.e{fill:#ff5c76;}.f{fill:#f9c126;}.g{clip-path:url(#a);}.h{fill:#ffeb7d;}.i{stroke-miterlimit:10;}.j{fill:#621cd1;}.l{stroke:#ff5c76;stroke-width:1.528px;}.m{stroke:#a4d2fc;stroke-width:1.833px;}.n{stroke:#621cd1;}</style><clipPath id="a"><path class="a" d="M150.134,163.392a.93.93,0,0,1-.807-1.246c6.438-17.654,15.738-32.676,35.514-30.346,19.893,2.354,31.777,3.784,38.077,37.015a.915.915,0,0,1-1.2,1.038c-6.3-2.238-12.693,1.8-14.169,2.838a.955.955,0,0,0-.393.6l-3.112,19.43a.92.92,0,0,1-1.133.739L169.7,184.992a.9.9,0,0,1-.646-.577c-.715-1.915-3.484-9.461-3.9-13.407a20.372,20.372,0,0,1,.945-8.379l-2.146,7.593a.925.925,0,0,1-1.593.346C160.38,168.285,155.834,163.83,150.134,163.392Z" transform="translate(-149.271 -131.561)"/></clipPath></defs><g transform="translate(-5.006 -45.635)"><path class="b" d="M246.775,222.848a1.372,1.372,0,0,1-.3-.046l-142.7-36.346a1.192,1.192,0,1,1,.6-2.308l142.706,36.346a1.2,1.2,0,0,1-.3,2.354Z" transform="translate(-23.959 -36.474)"/><path class="c" d="M170.287,254.832l-69-17.723a1.2,1.2,0,0,1-.254-2.238l18.946-9.715a5.564,5.564,0,0,1,3.9-.439l69,17.723a1.2,1.2,0,0,1,.254,2.238l-18.946,9.716A5.437,5.437,0,0,1,170.287,254.832Z" transform="translate(-23.347 -46.373)"/><path class="c" d="M76.531,225.209c-4.869-.739-10.615-7.246,3.069-11.354,9.369-2.815,16.777-4.269,22.292,3.185,2.861,3.392-7.892,2.677-12.184,4.108S79.645,225.671,76.531,225.209Z" transform="translate(-16.173 -43.196)"/><path class="d" d="M209.1,179.95c.716,8.609,2.4,15.784,2.4,18.162s0,8.836-22.222,17.218c-4.638,2.1-8.469,2.261-14.424,2.238-4.176-.023-7.892-.577-9.969-1.777-3.438-1.964.23,3.346,3.346,4.061-4.293,1.685-5.746,2.861-7.639,5.977-1.359,2.238-.854,3.231,1.435.946,1.915-1.915,5.492-3.346,7.174-3.83-2.861,2.4-5.746,5.261-5.977,8.377-.139,1.685.715.946,2.63-1.435a13.941,13.941,0,0,1,5.977-4.777,15.919,15.919,0,0,0-3.577,8.377c0,2.631,1.246.393,1.915-.946a26.1,26.1,0,0,1,4.293-5.492,34.844,34.844,0,0,0-1.685,8.377c0,1.2.716.946,1.916-1.43,1.2-2.4,3.021-6.461,9.092-6.461,7.174,0,25.823-6.208,33-11.239s11.238-11.008,9.808-20.077S223.479,179,223.479,179,214.706,171.457,209.1,179.95Z" transform="translate(-37.905 -34.468)"/><path class="d" d="M170.368,234.052a29.673,29.673,0,0,1,3.3-.877" transform="translate(-40.482 -48.486)"/><path class="d" d="M147.333,172.435c-1.431,5.03-5.261,16.015-6.693,18.646s-6.208,6.461-12.184,7.893-22.223,3.346-24.853,4.061-11.008,7.892-13.384,8.836c-2.4.946.946-5.261,1.684-7.892-2.861.715-8.609,1.2-12.438,2.861-3.831,1.684-3.831,0-.946-3.116a20.084,20.084,0,0,1,8.609-5.977c3.348-1.2,8.836-.946,13.384-1.685,4.546-.715,24.623-7.638,26.307-9.807,1.685-2.146,8.609-18.415,8.609-18.415S144.448,166.228,147.333,172.435Z" transform="translate(-17.492 -32.445)"/><path class="e" d="M263.483,119.746c-1.523-6.323-16.061-11.515-10.892-25.569s7.476-31.869-12.07-41.215c-16.938-8.1-25.2-2.354-26.861,5.588a2.512,2.512,0,0,0-2.354.785c-1.016,1.315-.046,3.738,2.146,5.446,2.031,1.569,4.385,1.964,5.538,1.016,25.8,6.646,13.777,27.414,9.923,31.73s-21.438,37.245,10.385,45.415C271.144,151.13,265.006,126.068,263.483,119.746Z" transform="translate(-50.405 -3.409)"/><path class="f" d="M150.134,163.392a.93.93,0,0,1-.807-1.246c6.438-17.654,15.738-32.676,35.514-30.346,19.893,2.354,31.777,3.784,38.077,37.015a.915.915,0,0,1-1.2,1.038c-6.3-2.238-12.693,1.8-14.169,2.838a.955.955,0,0,0-.393.6l-3.112,19.43a.92.92,0,0,1-1.133.739L169.7,184.992a.9.9,0,0,1-.646-.577c-.715-1.915-3.484-9.461-3.9-13.407a20.372,20.372,0,0,1,.945-8.379l-2.146,7.593a.925.925,0,0,1-1.593.346C160.38,168.285,155.834,163.83,150.134,163.392Z" transform="translate(-35.317 -23.61)"/><g class="g" transform="translate(113.954 107.951)"><path class="e" d="M175.835,187.486a1.661,1.661,0,0,0-.992-.854,1.371,1.371,0,0,0-1.435.208,1.719,1.719,0,0,0-.484,1.269,2.039,2.039,0,0,0-1.385,0,1.443,1.443,0,0,0-.785,1.223,1.24,1.24,0,0,0,.323,1.062c.9,1.062,3.484,1.223,3.762,1.223h.046a.5.5,0,0,0,.485-.322C175.467,191.13,176.458,188.776,175.835,187.486Z" transform="translate(-154.526 -145.014)"/><path class="e" d="M212.926,179.233a1.385,1.385,0,0,0,.116-1.269c-.254-.739-.646-.992-.992-1.062a1.773,1.773,0,0,0-1.316.323,1.848,1.848,0,0,0-.785-1.154,1.567,1.567,0,0,0-1.477.046,1.167,1.167,0,0,0-.692.9c-.369,1.359.992,3.554,1.107,3.808v.046a.52.52,0,0,0,.529.208C209.743,181.038,212.211,180.5,212.926,179.233Z" transform="translate(-163.579 -142.418)"/><path class="e" d="M189.478,186.293a1.527,1.527,0,0,0-1.27.046,1.309,1.309,0,0,0-.9,1.154,1.778,1.778,0,0,0,.484,1.27,2.021,2.021,0,0,0-1.015.945,1.5,1.5,0,0,0,.254,1.477,1.34,1.34,0,0,0,.992.577c1.384.208,3.392-1.384,3.646-1.592h0a.574.574,0,0,0,.162-.577C191.647,189.247,190.84,186.874,189.478,186.293Z" transform="translate(-158.43 -144.931)"/><path class="e" d="M165.46,160.014a1.527,1.527,0,0,0-1.269.046,1.31,1.31,0,0,0-.9,1.154,1.776,1.776,0,0,0,.484,1.269,2.023,2.023,0,0,0-1.015.946,1.5,1.5,0,0,0,.254,1.477,1.34,1.34,0,0,0,.992.577c1.384.208,3.392-1.385,3.646-1.593h0a.573.573,0,0,0,.162-.577C167.629,162.944,166.775,160.568,165.46,160.014Z" transform="translate(-152.55 -138.498)"/><path class="e" d="M210.059,160.471a1.661,1.661,0,0,0-.992-.854,1.371,1.371,0,0,0-1.435.208,1.722,1.722,0,0,0-.484,1.269,2.039,2.039,0,0,0-1.385,0,1.446,1.446,0,0,0-.785,1.223,1.238,1.238,0,0,0,.323,1.061c.9,1.062,3.484,1.223,3.762,1.223h.046a.5.5,0,0,0,.485-.323C209.69,164.117,210.659,161.786,210.059,160.471Z" transform="translate(-162.904 -138.401)"/><path class="e" d="M228.3,166.705a1.387,1.387,0,0,0,.116-1.269c-.254-.739-.646-.992-.992-1.062a1.78,1.78,0,0,0-1.316.323,1.848,1.848,0,0,0-.785-1.154,1.568,1.568,0,0,0-1.476.046,1.169,1.169,0,0,0-.693.9c-.369,1.359.992,3.554,1.108,3.808v.046a.518.518,0,0,0,.529.208C225.112,168.531,227.558,167.974,228.3,166.705Z" transform="translate(-167.341 -139.351)"/><path class="e" d="M220.83,143.727a1.527,1.527,0,0,0-1.27.046,1.31,1.31,0,0,0-.9,1.154,1.777,1.777,0,0,0,.485,1.269,2.027,2.027,0,0,0-1.016.946,1.5,1.5,0,0,0,.255,1.477,1.34,1.34,0,0,0,.992.577c1.384.208,3.392-1.385,3.646-1.593h0a.573.573,0,0,0,.162-.577C223,146.681,222.191,144.3,220.83,143.727Z" transform="translate(-166.105 -134.511)"/><path class="e" d="M210.059,160.471a1.661,1.661,0,0,0-.992-.854,1.371,1.371,0,0,0-1.435.208,1.722,1.722,0,0,0-.484,1.269,2.039,2.039,0,0,0-1.385,0,1.446,1.446,0,0,0-.785,1.223,1.238,1.238,0,0,0,.323,1.061c.9,1.062,3.484,1.223,3.762,1.223h.046a.5.5,0,0,0,.485-.323C209.69,164.117,210.659,161.786,210.059,160.471Z" transform="translate(-162.904 -138.401)"/><path class="e" d="M228.3,166.705a1.387,1.387,0,0,0,.116-1.269c-.254-.739-.646-.992-.992-1.062a1.78,1.78,0,0,0-1.316.323,1.848,1.848,0,0,0-.785-1.154,1.568,1.568,0,0,0-1.476.046,1.169,1.169,0,0,0-.693.9c-.369,1.359.992,3.554,1.108,3.808v.046a.518.518,0,0,0,.529.208C225.112,168.531,227.558,167.974,228.3,166.705Z" transform="translate(-167.341 -139.351)"/><path class="e" d="M172.781,140.945a1.661,1.661,0,0,0-.992-.854,1.37,1.37,0,0,0-1.43.208,1.72,1.72,0,0,0-.485,1.269,2.039,2.039,0,0,0-1.385,0,1.448,1.448,0,0,0-.785,1.223,1.24,1.24,0,0,0,.323,1.061c.9,1.062,3.484,1.223,3.762,1.223h.046a.5.5,0,0,0,.485-.323C172.454,144.591,173.4,142.26,172.781,140.945Z" transform="translate(-153.779 -133.621)"/><path class="e" d="M192.819,152.251a1.387,1.387,0,0,0,.116-1.269c-.254-.738-.646-.992-.992-1.061a1.773,1.773,0,0,0-1.316.323,1.846,1.846,0,0,0-.785-1.154,1.566,1.566,0,0,0-1.476.046,1.169,1.169,0,0,0-.693.9c-.369,1.359.992,3.553,1.108,3.808v.046a.518.518,0,0,0,.529.208C189.635,154.005,192.081,153.521,192.819,152.251Z" transform="translate(-158.656 -135.812)"/><path class="e" d="M185.323,127.562a1.525,1.525,0,0,0-1.269.046,1.309,1.309,0,0,0-.9,1.154,1.781,1.781,0,0,0,.487,1.269,2.021,2.021,0,0,0-1.015.946,1.5,1.5,0,0,0,.254,1.477,1.34,1.34,0,0,0,.992.577c1.384.208,3.392-1.384,3.646-1.592h0a.574.574,0,0,0,.162-.577C187.493,130.516,186.662,128.139,185.323,127.562Z" transform="translate(-157.414 -130.554)"/><path class="e" d="M185.523,167.958a1.662,1.662,0,0,0-.992-.854,1.37,1.37,0,0,0-1.43.208,1.723,1.723,0,0,0-.485,1.269,2.039,2.039,0,0,0-1.384,0,1.443,1.443,0,0,0-.785,1.223,1.24,1.24,0,0,0,.323,1.062c.9,1.057,3.484,1.223,3.761,1.223h.047a.5.5,0,0,0,.484-.322C185.2,171.6,186.147,169.273,185.523,167.958Z" transform="translate(-156.898 -140.234)"/><path class="e" d="M206.6,139.937a1.387,1.387,0,0,0,.115-1.27c-.254-.739-.646-.992-.992-1.062a1.771,1.771,0,0,0-1.315.323,1.848,1.848,0,0,0-.785-1.154,1.567,1.567,0,0,0-1.477.046,1.169,1.169,0,0,0-.692.9c-.369,1.359.992,3.554,1.108,3.808v.046a.52.52,0,0,0,.529.208C203.416,141.691,205.863,141.21,206.6,139.937Z" transform="translate(-162.03 -132.798)"/><path class="e" d="M212.933,198.026a1.661,1.661,0,0,0-.992-.854,1.37,1.37,0,0,0-1.43.208,1.723,1.723,0,0,0-.485,1.269,2.039,2.039,0,0,0-1.384,0,1.445,1.445,0,0,0-.785,1.223,1.238,1.238,0,0,0,.323,1.061c.9,1.062,3.484,1.223,3.761,1.223h.046a.5.5,0,0,0,.485-.323C212.567,201.672,213.533,199.364,212.933,198.026Z" transform="translate(-163.609 -147.595)"/><path class="e" d="M242.078,175.811a1.387,1.387,0,0,0,.115-1.269c-.254-.739-.646-.992-.992-1.062a1.777,1.777,0,0,0-1.315.323,1.85,1.85,0,0,0-.785-1.154,1.569,1.569,0,0,0-1.477.047,1.167,1.167,0,0,0-.693.9c-.369,1.359.992,3.554,1.108,3.808v.046a.52.52,0,0,0,.529.208C238.87,177.611,241.34,177.08,242.078,175.811Z" transform="translate(-170.715 -141.58)"/></g><path class="d" d="M203.128,117.342c-.162.208.231,10.707.415,13.892a4.9,4.9,0,0,1-1.154,3.508,3.571,3.571,0,0,1-4.13,1.2,4,4,0,0,1-2.19-3.692V117.18" transform="translate(-46.773 -20.089)"/><path class="h" d="M181.524,102.317c3.831.231,7.154-3.531,7.454-8.4s-2.562-9.022-6.369-9.253c-3.83-.231-7.153,3.531-7.454,8.4a10.363,10.363,0,0,0,1.178,5.607,10.191,10.191,0,0,0-2.054,5.654,8.524,8.524,0,0,0,2.608,6.438,2.628,2.628,0,0,0-.254.946,2.508,2.508,0,1,0,2.654-2.354,2.7,2.7,0,0,0-1.223.231,7.285,7.285,0,0,1-.739-9.462,5.956,5.956,0,0,0,4.2,2.192Z" transform="translate(-41.438 -12.127)"/><path class="i" d="M183.7,82.932s-2.815,31.107,14.4,29.7c11.861-1.339,12.807-24.853,10.938-32.792" transform="translate(-43.703 -10.948)"/><path class="j" d="M203.765,97.9a1.573,1.573,0,0,1,1.385,1.754,1.621,1.621,0,0,1-1.408,1.754,1.573,1.573,0,0,1-1.385-1.754A1.6,1.6,0,0,1,203.765,97.9Z" transform="translate(-48.31 -15.369)"/><path class="k" d="M195.683,104.774a13.93,13.93,0,0,1-1.964,2.676c-.831.877,1.8.992,1.8.992" transform="translate(-46.159 -17.052)"/><path class="l" d="M207.052,93.917a3.975,3.975,0,0,0-3.346-1.43" transform="translate(-48.643 -14.042)"/><path class="k" d="M200.91,113.513s-.415,1.523-2.215.831" transform="translate(-47.416 -19.192)"/><path class="j" d="M191.42,97.684a1.573,1.573,0,0,1,1.385,1.754,1.621,1.621,0,0,1-1.408,1.754,1.573,1.573,0,0,1-1.385-1.754,1.621,1.621,0,0,1,1.408-1.754Z" transform="translate(-45.288 -15.317)"/><path class="l" d="M191.409,92.581a5.513,5.513,0,0,0-2.584,1.223" transform="translate(-45 -14.067)"/><path class="e" d="M205.724,84.647c.785-4.984-1.316-13.5-9.9-18.092s-23.654-8.631-25.338,3S187.4,82.8,193.032,80.77,202.47,79.179,205.724,84.647Z" transform="translate(-40.484 -6.572)"/><path class="h" d="M214.093,81.944c.231-.322.485-.692.762-1.133-2.238-22.176-18.208-19.569-21.67-17.607,0,0-1.823-.715,5.123,2.469,9.554,4.407,12.369,13.754,13.015,16.684-2.63,1.061-4.707,4.038-5.076,7.708-.485,4.869,2.215,9.115,6.023,9.484s7.292-3.254,7.778-8.1C220.508,86.607,217.854,82.36,214.093,81.944Z" transform="translate(-46.015 -6.569)"/><path class="c" d="M92.318,169.828l-67.707-15.3a6.476,6.476,0,0,1-4.708-4.269L5.341,106.531a6.483,6.483,0,0,1,7.569-8.383l67.707,15.3a6.479,6.479,0,0,1,4.708,4.269l14.584,43.73a6.495,6.495,0,0,1-7.592,8.38Z" transform="translate(0 -15.392)"/><path class="j" d="M80.3,226.012,62.7,221.258c-4.269-7.015-7.108-16.476-7.108-27.6,0-15.323,4.682-28.707,11.7-35.953a1.486,1.486,0,0,0-.693-2.469l-8.7-2.355a1.405,1.405,0,0,0-1.359.323c-7.846,6.785-13.223,21-13.223,37.407,0,13.82,3.762,25.431,9.6,32.473l-3.808,1.964a.523.523,0,0,0-.3.485h0v2.284h0a.561.561,0,0,0,.416.554l20.768,5.608a2.391,2.391,0,0,0,1.777-.208l8.654-4.431a.556.556,0,0,0,.3-.508v-2.244a.569.569,0,0,0-.418-.576Z" transform="translate(-9.378 -28.815)"/><path class="m" d="M105.576,123.291c-2.146,15.808,4.292,39.369,15.069,48.069" transform="translate(-24.519 -21.585)"/><path class="n" d="M74.051,224.305a19.441,19.441,0,0,1,6.623-4.269" transform="translate(-16.903 -45.269)"/></g></svg>